<?xml version="1.0" encoding="UTF-8"?>
<svg xmlns="http://www.w3.org/2000/svg" xmlns:xlink="http://www.w3.org/1999/xlink" stroke-dasharray="none" shape-rendering="auto" font-family="'Dialog'" width="950" text-rendering="auto" fill-opacity="1" contentScriptType="text/ecmascript" color-interpolation="auto" color-rendering="auto" preserveAspectRatio="xMidYMid meet" font-size="12" viewBox="0 0 950 1330" fill="black" stroke="black" image-rendering="auto" stroke-miterlimit="10" zoomAndPan="magnify" version="1.0" stroke-linecap="square" stroke-linejoin="miter" contentStyleType="text/css" font-style="normal" height="1330" stroke-width="1" stroke-dashoffset="0" font-weight="normal" stroke-opacity="1">
  <!--Generated by the Batik Graphics2D SVG Generator-->
  <defs id="genericDefs" />
  <g>
    <defs id="defs1">
      <clipPath clipPathUnits="userSpaceOnUse" id="clipPath1">
        <path d="M9 9 L81 9 L81 41 L9 41 L9 9 Z" />
      </clipPath>
      <clipPath clipPathUnits="userSpaceOnUse" id="clipPath2">
        <path d="M9 9 L84 9 L84 41 L9 41 L9 9 Z" />
      </clipPath>
      <clipPath clipPathUnits="userSpaceOnUse" id="clipPath3">
        <path d="M39 39 L51 39 L51 1321 L39 1321 L39 39 Z" />
      </clipPath>
      <clipPath clipPathUnits="userSpaceOnUse" id="clipPath4">
        <path d="M238 9 L390 9 L390 61 L238 61 L238 9 Z" />
      </clipPath>
      <clipPath clipPathUnits="userSpaceOnUse" id="clipPath5">
        <path d="M238 9 L393 9 L393 61 L238 61 L238 9 Z" />
      </clipPath>
      <clipPath clipPathUnits="userSpaceOnUse" id="clipPath6">
        <path d="M308 59 L320 59 L320 1321 L308 1321 L308 59 Z" />
      </clipPath>
      <clipPath clipPathUnits="userSpaceOnUse" id="clipPath7">
        <path d="M303 389 L325 389 L325 431 L303 431 L303 389 Z" />
      </clipPath>
      <clipPath clipPathUnits="userSpaceOnUse" id="clipPath8">
        <path d="M324 389 L357 389 L357 407 L324 407 L324 389 Z" />
      </clipPath>
      <clipPath clipPathUnits="userSpaceOnUse" id="clipPath9">
        <path d="M418 9 L581 9 L581 61 L418 61 L418 9 Z" />
      </clipPath>
      <clipPath clipPathUnits="userSpaceOnUse" id="clipPath10">
        <path d="M418 9 L584 9 L584 61 L418 61 L418 9 Z" />
      </clipPath>
      <clipPath clipPathUnits="userSpaceOnUse" id="clipPath11">
        <path d="M493 59 L505 59 L505 1321 L493 1321 L493 59 Z" />
      </clipPath>
      <clipPath clipPathUnits="userSpaceOnUse" id="clipPath12">
        <path d="M488 89 L510 89 L510 131 L488 131 L488 89 Z" />
      </clipPath>
      <clipPath clipPathUnits="userSpaceOnUse" id="clipPath13">
        <path d="M509 89 L551 89 L551 107 L509 107 L509 89 Z" />
      </clipPath>
      <clipPath clipPathUnits="userSpaceOnUse" id="clipPath14">
        <path d="M488 689 L510 689 L510 731 L488 731 L488 689 Z" />
      </clipPath>
      <clipPath clipPathUnits="userSpaceOnUse" id="clipPath15">
        <path d="M509 689 L551 689 L551 707 L509 707 L509 689 Z" />
      </clipPath>
      <clipPath clipPathUnits="userSpaceOnUse" id="clipPath16">
        <path d="M488 809 L510 809 L510 851 L488 851 L488 809 Z" />
      </clipPath>
      <clipPath clipPathUnits="userSpaceOnUse" id="clipPath17">
        <path d="M509 809 L551 809 L551 827 L509 827 L509 809 Z" />
      </clipPath>
      <clipPath clipPathUnits="userSpaceOnUse" id="clipPath18">
        <path d="M488 149 L510 149 L510 191 L488 191 L488 149 Z" />
      </clipPath>
      <clipPath clipPathUnits="userSpaceOnUse" id="clipPath19">
        <path d="M509 149 L542 149 L542 167 L509 167 L509 149 Z" />
      </clipPath>
      <clipPath clipPathUnits="userSpaceOnUse" id="clipPath20">
        <path d="M488 449 L510 449 L510 491 L488 491 L488 449 Z" />
      </clipPath>
      <clipPath clipPathUnits="userSpaceOnUse" id="clipPath21">
        <path d="M509 449 L542 449 L542 467 L509 467 L509 449 Z" />
      </clipPath>
      <clipPath clipPathUnits="userSpaceOnUse" id="clipPath22">
        <path d="M488 749 L510 749 L510 791 L488 791 L488 749 Z" />
      </clipPath>
      <clipPath clipPathUnits="userSpaceOnUse" id="clipPath23">
        <path d="M509 749 L542 749 L542 767 L509 767 L509 749 Z" />
      </clipPath>
      <clipPath clipPathUnits="userSpaceOnUse" id="clipPath24">
        <path d="M598 9 L781 9 L781 61 L598 61 L598 9 Z" />
      </clipPath>
      <clipPath clipPathUnits="userSpaceOnUse" id="clipPath25">
        <path d="M598 9 L784 9 L784 61 L598 61 L598 9 Z" />
      </clipPath>
      <clipPath clipPathUnits="userSpaceOnUse" id="clipPath26">
        <path d="M683 59 L695 59 L695 1321 L683 1321 L683 59 Z" />
      </clipPath>
      <clipPath clipPathUnits="userSpaceOnUse" id="clipPath27">
        <path d="M678 209 L700 209 L700 251 L678 251 L678 209 Z" />
      </clipPath>
      <clipPath clipPathUnits="userSpaceOnUse" id="clipPath28">
        <path d="M699 209 L741 209 L741 227 L699 227 L699 209 Z" />
      </clipPath>
      <clipPath clipPathUnits="userSpaceOnUse" id="clipPath29">
        <path d="M678 329 L700 329 L700 371 L678 371 L678 329 Z" />
      </clipPath>
      <clipPath clipPathUnits="userSpaceOnUse" id="clipPath30">
        <path d="M699 329 L741 329 L741 347 L699 347 L699 329 Z" />
      </clipPath>
      <clipPath clipPathUnits="userSpaceOnUse" id="clipPath31">
        <path d="M678 569 L700 569 L700 611 L678 611 L678 569 Z" />
      </clipPath>
      <clipPath clipPathUnits="userSpaceOnUse" id="clipPath32">
        <path d="M699 569 L741 569 L741 587 L699 587 L699 569 Z" />
      </clipPath>
      <clipPath clipPathUnits="userSpaceOnUse" id="clipPath33">
        <path d="M678 1049 L700 1049 L700 1091 L678 1091 L678 1049 Z" />
      </clipPath>
      <clipPath clipPathUnits="userSpaceOnUse" id="clipPath34">
        <path d="M699 1049 L741 1049 L741 1067 L699 1067 L699 1049 Z" />
      </clipPath>
      <clipPath clipPathUnits="userSpaceOnUse" id="clipPath35">
        <path d="M678 269 L700 269 L700 311 L678 311 L678 269 Z" />
      </clipPath>
      <clipPath clipPathUnits="userSpaceOnUse" id="clipPath36">
        <path d="M699 269 L732 269 L732 287 L699 287 L699 269 Z" />
      </clipPath>
      <clipPath clipPathUnits="userSpaceOnUse" id="clipPath37">
        <path d="M678 509 L700 509 L700 551 L678 551 L678 509 Z" />
      </clipPath>
      <clipPath clipPathUnits="userSpaceOnUse" id="clipPath38">
        <path d="M699 509 L732 509 L732 527 L699 527 L699 509 Z" />
      </clipPath>
      <clipPath clipPathUnits="userSpaceOnUse" id="clipPath39">
        <path d="M678 629 L700 629 L700 671 L678 671 L678 629 Z" />
      </clipPath>
      <clipPath clipPathUnits="userSpaceOnUse" id="clipPath40">
        <path d="M699 629 L732 629 L732 647 L699 647 L699 629 Z" />
      </clipPath>
      <clipPath clipPathUnits="userSpaceOnUse" id="clipPath41">
        <path d="M678 1109 L700 1109 L700 1151 L678 1151 L678 1109 Z" />
      </clipPath>
      <clipPath clipPathUnits="userSpaceOnUse" id="clipPath42">
        <path d="M699 1109 L732 1109 L732 1127 L699 1127 L699 1109 Z" />
      </clipPath>
      <clipPath clipPathUnits="userSpaceOnUse" id="clipPath43">
        <path d="M789 9 L941 9 L941 61 L789 61 L789 9 Z" />
      </clipPath>
      <clipPath clipPathUnits="userSpaceOnUse" id="clipPath44">
        <path d="M789 9 L944 9 L944 61 L789 61 L789 9 Z" />
      </clipPath>
      <clipPath clipPathUnits="userSpaceOnUse" id="clipPath45">
        <path d="M859 59 L871 59 L871 1321 L859 1321 L859 59 Z" />
      </clipPath>
      <clipPath clipPathUnits="userSpaceOnUse" id="clipPath46">
        <path d="M854 929 L876 929 L876 971 L854 971 L854 929 Z" />
      </clipPath>
      <clipPath clipPathUnits="userSpaceOnUse" id="clipPath47">
        <path d="M875 929 L917 929 L917 947 L875 947 L875 929 Z" />
      </clipPath>
      <clipPath clipPathUnits="userSpaceOnUse" id="clipPath48">
        <path d="M854 1169 L876 1169 L876 1211 L854 1211 L854 1169 Z" />
      </clipPath>
      <clipPath clipPathUnits="userSpaceOnUse" id="clipPath49">
        <path d="M875 1169 L917 1169 L917 1187 L875 1187 L875 1169 Z" />
      </clipPath>
      <clipPath clipPathUnits="userSpaceOnUse" id="clipPath50">
        <path d="M854 869 L876 869 L876 911 L854 911 L854 869 Z" />
      </clipPath>
      <clipPath clipPathUnits="userSpaceOnUse" id="clipPath51">
        <path d="M875 869 L908 869 L908 887 L875 887 L875 869 Z" />
      </clipPath>
      <clipPath clipPathUnits="userSpaceOnUse" id="clipPath52">
        <path d="M854 989 L876 989 L876 1031 L854 1031 L854 989 Z" />
      </clipPath>
      <clipPath clipPathUnits="userSpaceOnUse" id="clipPath53">
        <path d="M875 989 L908 989 L908 1007 L875 1007 L875 989 Z" />
      </clipPath>
      <clipPath clipPathUnits="userSpaceOnUse" id="clipPath54">
        <path d="M854 1229 L876 1229 L876 1271 L854 1271 L854 1229 Z" />
      </clipPath>
      <clipPath clipPathUnits="userSpaceOnUse" id="clipPath55">
        <path d="M875 1229 L908 1229 L908 1247 L875 1247 L875 1229 Z" />
      </clipPath>
      <clipPath clipPathUnits="userSpaceOnUse" id="clipPath56">
        <path d="M-1 -1 L951 -1 L951 1331 L-1 1331 L-1 -1 Z" />
      </clipPath>
      <clipPath clipPathUnits="userSpaceOnUse" id="clipPath57">
        <path d="M152 70 L385 70 L385 88 L152 88 L152 70 Z" />
      </clipPath>
      <clipPath clipPathUnits="userSpaceOnUse" id="clipPath58">
        <path d="M43 84 L55 84 L55 95 L43 95 L43 84 Z" />
      </clipPath>
      <clipPath clipPathUnits="userSpaceOnUse" id="clipPath59">
        <path d="M263 190 L464 190 L464 208 L263 208 L263 190 Z" />
      </clipPath>
      <clipPath clipPathUnits="userSpaceOnUse" id="clipPath60">
        <path d="M43 204 L55 204 L55 215 L43 215 L43 204 Z" />
      </clipPath>
      <clipPath clipPathUnits="userSpaceOnUse" id="clipPath61">
        <path d="M201 310 L526 310 L526 328 L201 328 L201 310 Z" />
      </clipPath>
      <clipPath clipPathUnits="userSpaceOnUse" id="clipPath62">
        <path d="M43 324 L55 324 L55 335 L43 335 L43 324 Z" />
      </clipPath>
      <clipPath clipPathUnits="userSpaceOnUse" id="clipPath63">
        <path d="M247 550 L480 550 L480 568 L247 568 L247 550 Z" />
      </clipPath>
      <clipPath clipPathUnits="userSpaceOnUse" id="clipPath64">
        <path d="M43 564 L55 564 L55 575 L43 575 L43 564 Z" />
      </clipPath>
      <clipPath clipPathUnits="userSpaceOnUse" id="clipPath65">
        <path d="M158 670 L380 670 L380 688 L158 688 L158 670 Z" />
      </clipPath>
      <clipPath clipPathUnits="userSpaceOnUse" id="clipPath66">
        <path d="M43 684 L55 684 L55 695 L43 695 L43 684 Z" />
      </clipPath>
      <clipPath clipPathUnits="userSpaceOnUse" id="clipPath67">
        <path d="M181 790 L357 790 L357 808 L181 808 L181 790 Z" />
      </clipPath>
      <clipPath clipPathUnits="userSpaceOnUse" id="clipPath68">
        <path d="M43 804 L55 804 L55 815 L43 815 L43 804 Z" />
      </clipPath>
      <clipPath clipPathUnits="userSpaceOnUse" id="clipPath69">
        <path d="M335 910 L568 910 L568 928 L335 928 L335 910 Z" />
      </clipPath>
      <clipPath clipPathUnits="userSpaceOnUse" id="clipPath70">
        <path d="M43 924 L55 924 L55 935 L43 935 L43 924 Z" />
      </clipPath>
      <clipPath clipPathUnits="userSpaceOnUse" id="clipPath71">
        <path d="M253 1030 L475 1030 L475 1048 L253 1048 L253 1030 Z" />
      </clipPath>
      <clipPath clipPathUnits="userSpaceOnUse" id="clipPath72">
        <path d="M43 1044 L55 1044 L55 1055 L43 1055 L43 1044 Z" />
      </clipPath>
      <clipPath clipPathUnits="userSpaceOnUse" id="clipPath73">
        <path d="M341 1150 L563 1150 L563 1168 L341 1168 L341 1150 Z" />
      </clipPath>
      <clipPath clipPathUnits="userSpaceOnUse" id="clipPath74">
        <path d="M43 1164 L55 1164 L55 1175 L43 1175 L43 1164 Z" />
      </clipPath>
      <clipPath clipPathUnits="userSpaceOnUse" id="clipPath75">
        <path d="M150 130 L387 130 L387 148 L150 148 L150 130 Z" />
      </clipPath>
      <clipPath clipPathUnits="userSpaceOnUse" id="clipPath76">
        <path d="M480 144 L492 144 L492 155 L480 155 L480 144 Z" />
      </clipPath>
      <clipPath clipPathUnits="userSpaceOnUse" id="clipPath77">
        <path d="M185 250 L543 250 L543 268 L185 268 L185 250 Z" />
      </clipPath>
      <clipPath clipPathUnits="userSpaceOnUse" id="clipPath78">
        <path d="M670 264 L682 264 L682 275 L670 275 L670 264 Z" />
      </clipPath>
      <clipPath clipPathUnits="userSpaceOnUse" id="clipPath79">
        <path d="M57 370 L295 370 L295 388 L57 388 L57 370 Z" />
      </clipPath>
      <clipPath clipPathUnits="userSpaceOnUse" id="clipPath80">
        <path d="M295 384 L307 384 L307 395 L295 395 L295 384 Z" />
      </clipPath>
      <clipPath clipPathUnits="userSpaceOnUse" id="clipPath81">
        <path d="M150 430 L388 430 L388 448 L150 448 L150 430 Z" />
      </clipPath>
      <clipPath clipPathUnits="userSpaceOnUse" id="clipPath82">
        <path d="M480 444 L492 444 L492 455 L480 455 L480 444 Z" />
      </clipPath>
      <clipPath clipPathUnits="userSpaceOnUse" id="clipPath83">
        <path d="M245 490 L483 490 L483 508 L245 508 L245 490 Z" />
      </clipPath>
      <clipPath clipPathUnits="userSpaceOnUse" id="clipPath84">
        <path d="M670 504 L682 504 L682 515 L670 515 L670 504 Z" />
      </clipPath>
      <clipPath clipPathUnits="userSpaceOnUse" id="clipPath85">
        <path d="M245 610 L482 610 L482 628 L245 628 L245 610 Z" />
      </clipPath>
      <clipPath clipPathUnits="userSpaceOnUse" id="clipPath86">
        <path d="M670 624 L682 624 L682 635 L670 635 L670 624 Z" />
      </clipPath>
      <clipPath clipPathUnits="userSpaceOnUse" id="clipPath87">
        <path d="M150 730 L387 730 L387 748 L150 748 L150 730 Z" />
      </clipPath>
      <clipPath clipPathUnits="userSpaceOnUse" id="clipPath88">
        <path d="M480 744 L492 744 L492 755 L480 755 L480 744 Z" />
      </clipPath>
      <clipPath clipPathUnits="userSpaceOnUse" id="clipPath89">
        <path d="M145 850 L758 850 L758 868 L145 868 L145 850 Z" />
      </clipPath>
      <clipPath clipPathUnits="userSpaceOnUse" id="clipPath90">
        <path d="M846 864 L858 864 L858 875 L846 875 L846 864 Z" />
      </clipPath>
      <clipPath clipPathUnits="userSpaceOnUse" id="clipPath91">
        <path d="M333 970 L570 970 L570 988 L333 988 L333 970 Z" />
      </clipPath>
      <clipPath clipPathUnits="userSpaceOnUse" id="clipPath92">
        <path d="M846 984 L858 984 L858 995 L846 995 L846 984 Z" />
      </clipPath>
      <clipPath clipPathUnits="userSpaceOnUse" id="clipPath93">
        <path d="M245 1090 L482 1090 L482 1108 L245 1108 L245 1090 Z" />
      </clipPath>
      <clipPath clipPathUnits="userSpaceOnUse" id="clipPath94">
        <path d="M670 1104 L682 1104 L682 1115 L670 1115 L670 1104 Z" />
      </clipPath>
      <clipPath clipPathUnits="userSpaceOnUse" id="clipPath95">
        <path d="M333 1210 L570 1210 L570 1228 L333 1228 L333 1210 Z" />
      </clipPath>
      <clipPath clipPathUnits="userSpaceOnUse" id="clipPath96">
        <path d="M846 1224 L858 1224 L858 1235 L846 1235 L846 1224 Z" />
      </clipPath>
    </defs>
    <g font-size="13" fill="rgb(238,201,142)" font-family="'Lucida Sans Unicode'" stroke-linejoin="round" stroke="rgb(238,201,142)" stroke-width="0" stroke-miterlimit="0">
      <rect x="10" y="10" clip-path="url(#clipPath1)" width="70" height="30" stroke="none" />
    </g>
    <g stroke-width="0.1" font-size="13" font-family="'Lucida Sans Unicode'" stroke-linecap="butt">
      <rect x="10" y="10" clip-path="url(#clipPath1)" fill="none" width="69" height="29" />
      <text xml:space="preserve" x="22" y="32" clip-path="url(#clipPath2)" stroke="none">System</text>
      <line clip-path="url(#clipPath3)" fill="none" x1="44" x2="44" y1="40" y2="1320" stroke-dasharray="10,10" stroke-width="1.1" />
    </g>
    <g stroke-linecap="butt" font-size="13" fill="rgb(255,245,181)" font-family="'Lucida Sans Unicode'" stroke-dasharray="10,10" stroke="rgb(255,245,181)" stroke-width="1.1">
      <rect x="239" y="10" clip-path="url(#clipPath4)" width="150" height="50" stroke="none" />
    </g>
    <g stroke-width="0.1" font-size="13" font-family="'Lucida Sans Unicode'" stroke-linecap="butt">
      <rect x="239" y="10" clip-path="url(#clipPath4)" fill="none" width="149" height="49" />
      <text xml:space="preserve" x="290" y="34" clip-path="url(#clipPath5)" stroke="none">Camille</text>
      <text xml:space="preserve" x="240" y="50" clip-path="url(#clipPath5)" stroke="none">: actCentralCoordinator</text>
      <line clip-path="url(#clipPath6)" fill="none" x1="313" x2="313" y1="60" y2="1320" stroke-dasharray="10,10" stroke-width="1.1" />
    </g>
    <g stroke-linecap="butt" font-size="13" fill="rgb(194,239,255)" font-family="'Lucida Sans Unicode'" stroke-dasharray="10,10" stroke="rgb(194,239,255)" stroke-width="1.1">
      <rect x="304" y="390" clip-path="url(#clipPath7)" width="20" height="40" stroke="none" />
      <rect x="304" y="390" clip-path="url(#clipPath7)" fill="none" width="19" stroke-dasharray="none" height="39" stroke-width="0.1" />
    </g>
    <g stroke-width="0.1" font-size="13" font-family="'Lucida Sans Unicode'" stroke-linecap="butt">
      <text xml:space="preserve" x="325" y="405" clip-path="url(#clipPath8)" stroke="none">in03</text>
      <rect x="419" y="10" clip-path="url(#clipPath9)" fill="rgb(255,245,181)" width="161" height="50" stroke="none" />
      <rect x="419" y="10" clip-path="url(#clipPath9)" fill="none" width="160" height="49" />
      <text xml:space="preserve" x="482" y="34" clip-path="url(#clipPath10)" stroke="none">Fabio</text>
      <text xml:space="preserve" x="423" y="50" clip-path="url(#clipPath10)" stroke="none">: actFiremenCoordinator</text>
      <line clip-path="url(#clipPath11)" fill="none" x1="498" x2="498" y1="60" y2="1320" stroke-dasharray="10,10" stroke-width="1.1" />
    </g>
    <g stroke-linecap="butt" font-size="13" fill="rgb(39,76,114)" font-family="'Lucida Sans Unicode'" stroke-dasharray="10,10" stroke="rgb(39,76,114)" stroke-width="1.1">
      <rect x="489" y="90" clip-path="url(#clipPath12)" width="20" height="40" stroke="none" />
      <rect x="489" y="90" clip-path="url(#clipPath12)" fill="none" width="19" stroke-dasharray="none" height="39" stroke-width="0.1" />
    </g>
    <g stroke-width="0.1" font-size="13" font-family="'Lucida Sans Unicode'" stroke-linecap="butt">
      <text xml:space="preserve" x="510" y="105" clip-path="url(#clipPath13)" stroke="none">out01</text>
      <rect x="489" y="690" clip-path="url(#clipPath14)" fill="rgb(39,76,114)" width="20" height="40" stroke="none" />
      <rect x="489" y="690" clip-path="url(#clipPath14)" fill="none" width="19" height="39" stroke="rgb(39,76,114)" />
      <text xml:space="preserve" x="510" y="705" clip-path="url(#clipPath15)" stroke="none">out05</text>
      <rect x="489" y="810" clip-path="url(#clipPath16)" fill="rgb(39,76,114)" width="20" height="40" stroke="none" />
      <rect x="489" y="810" clip-path="url(#clipPath16)" fill="none" width="19" height="39" stroke="rgb(39,76,114)" />
      <text xml:space="preserve" x="510" y="825" clip-path="url(#clipPath17)" stroke="none">out06</text>
      <rect x="489" y="150" clip-path="url(#clipPath18)" fill="rgb(194,239,255)" width="20" height="40" stroke="none" />
      <rect x="489" y="150" clip-path="url(#clipPath18)" fill="none" width="19" height="39" stroke="rgb(194,239,255)" />
      <text xml:space="preserve" x="510" y="165" clip-path="url(#clipPath19)" stroke="none">in01</text>
      <rect x="489" y="450" clip-path="url(#clipPath20)" fill="rgb(194,239,255)" width="20" height="40" stroke="none" />
      <rect x="489" y="450" clip-path="url(#clipPath20)" fill="none" width="19" height="39" stroke="rgb(194,239,255)" />
      <text xml:space="preserve" x="510" y="465" clip-path="url(#clipPath21)" stroke="none">in04</text>
      <rect x="489" y="750" clip-path="url(#clipPath22)" fill="rgb(194,239,255)" width="20" height="40" stroke="none" />
      <rect x="489" y="750" clip-path="url(#clipPath22)" fill="none" width="19" height="39" stroke="rgb(194,239,255)" />
      <text xml:space="preserve" x="510" y="765" clip-path="url(#clipPath23)" stroke="none">in07</text>
      <rect x="599" y="10" clip-path="url(#clipPath24)" fill="rgb(255,245,181)" width="181" height="50" stroke="none" />
      <rect x="599" y="10" clip-path="url(#clipPath24)" fill="none" width="180" height="49" />
      <text xml:space="preserve" x="677" y="34" clip-path="url(#clipPath25)" stroke="none">Ted</text>
      <text xml:space="preserve" x="603" y="50" clip-path="url(#clipPath25)" stroke="none">: actTowServiceCoordinator</text>
      <line clip-path="url(#clipPath26)" fill="none" x1="688" x2="688" y1="60" y2="1320" stroke-dasharray="10,10" stroke-width="1.1" />
    </g>
    <g stroke-linecap="butt" font-size="13" fill="rgb(39,76,114)" font-family="'Lucida Sans Unicode'" stroke-dasharray="10,10" stroke="rgb(39,76,114)" stroke-width="1.1">
      <rect x="679" y="210" clip-path="url(#clipPath27)" width="20" height="40" stroke="none" />
      <rect x="679" y="210" clip-path="url(#clipPath27)" fill="none" width="19" stroke-dasharray="none" height="39" stroke-width="0.1" />
    </g>
    <g stroke-width="0.1" font-size="13" font-family="'Lucida Sans Unicode'" stroke-linecap="butt">
      <text xml:space="preserve" x="700" y="225" clip-path="url(#clipPath28)" stroke="none">out02</text>
      <rect x="679" y="330" clip-path="url(#clipPath29)" fill="rgb(39,76,114)" width="20" height="40" stroke="none" />
      <rect x="679" y="330" clip-path="url(#clipPath29)" fill="none" width="19" height="39" stroke="rgb(39,76,114)" />
      <text xml:space="preserve" x="700" y="345" clip-path="url(#clipPath30)" stroke="none">out03</text>
      <rect x="679" y="570" clip-path="url(#clipPath31)" fill="rgb(39,76,114)" width="20" height="40" stroke="none" />
      <rect x="679" y="570" clip-path="url(#clipPath31)" fill="none" width="19" height="39" stroke="rgb(39,76,114)" />
      <text xml:space="preserve" x="700" y="585" clip-path="url(#clipPath32)" stroke="none">out04</text>
      <rect x="679" y="1050" clip-path="url(#clipPath33)" fill="rgb(39,76,114)" width="20" height="40" stroke="none" />
      <rect x="679" y="1050" clip-path="url(#clipPath33)" fill="none" width="19" height="39" stroke="rgb(39,76,114)" />
      <text xml:space="preserve" x="700" y="1065" clip-path="url(#clipPath34)" stroke="none">out08</text>
      <rect x="679" y="270" clip-path="url(#clipPath35)" fill="rgb(194,239,255)" width="20" height="40" stroke="none" />
      <rect x="679" y="270" clip-path="url(#clipPath35)" fill="none" width="19" height="39" stroke="rgb(194,239,255)" />
      <text xml:space="preserve" x="700" y="285" clip-path="url(#clipPath36)" stroke="none">in02</text>
      <rect x="679" y="510" clip-path="url(#clipPath37)" fill="rgb(194,239,255)" width="20" height="40" stroke="none" />
      <rect x="679" y="510" clip-path="url(#clipPath37)" fill="none" width="19" height="39" stroke="rgb(194,239,255)" />
      <text xml:space="preserve" x="700" y="525" clip-path="url(#clipPath38)" stroke="none">in05</text>
      <rect x="679" y="630" clip-path="url(#clipPath39)" fill="rgb(194,239,255)" width="20" height="40" stroke="none" />
      <rect x="679" y="630" clip-path="url(#clipPath39)" fill="none" width="19" height="39" stroke="rgb(194,239,255)" />
      <text xml:space="preserve" x="700" y="645" clip-path="url(#clipPath40)" stroke="none">in06</text>
      <rect x="679" y="1110" clip-path="url(#clipPath41)" fill="rgb(194,239,255)" width="20" height="40" stroke="none" />
      <rect x="679" y="1110" clip-path="url(#clipPath41)" fill="none" width="19" height="39" stroke="rgb(194,239,255)" />
      <text xml:space="preserve" x="700" y="1125" clip-path="url(#clipPath42)" stroke="none">in10</text>
      <rect x="790" y="10" clip-path="url(#clipPath43)" fill="rgb(255,245,181)" width="150" height="50" stroke="none" />
      <rect x="790" y="10" clip-path="url(#clipPath43)" fill="none" width="149" height="49" />
      <text xml:space="preserve" x="851" y="34" clip-path="url(#clipPath44)" stroke="none">Polo</text>
      <text xml:space="preserve" x="795" y="50" clip-path="url(#clipPath44)" stroke="none">: actPoliceCoordinator</text>
      <line clip-path="url(#clipPath45)" fill="none" x1="864" x2="864" y1="60" y2="1320" stroke-dasharray="10,10" stroke-width="1.1" />
    </g>
    <g stroke-linecap="butt" font-size="13" fill="rgb(39,76,114)" font-family="'Lucida Sans Unicode'" stroke-dasharray="10,10" stroke="rgb(39,76,114)" stroke-width="1.1">
      <rect x="855" y="930" clip-path="url(#clipPath46)" width="20" height="40" stroke="none" />
      <rect x="855" y="930" clip-path="url(#clipPath46)" fill="none" width="19" stroke-dasharray="none" height="39" stroke-width="0.1" />
    </g>
    <g stroke-width="0.1" font-size="13" font-family="'Lucida Sans Unicode'" stroke-linecap="butt">
      <text xml:space="preserve" x="876" y="945" clip-path="url(#clipPath47)" stroke="none">out07</text>
      <rect x="855" y="1170" clip-path="url(#clipPath48)" fill="rgb(39,76,114)" width="20" height="40" stroke="none" />
      <rect x="855" y="1170" clip-path="url(#clipPath48)" fill="none" width="19" height="39" stroke="rgb(39,76,114)" />
      <text xml:space="preserve" x="876" y="1185" clip-path="url(#clipPath49)" stroke="none">out09</text>
      <rect x="855" y="870" clip-path="url(#clipPath50)" fill="rgb(194,239,255)" width="20" height="40" stroke="none" />
      <rect x="855" y="870" clip-path="url(#clipPath50)" fill="none" width="19" height="39" stroke="rgb(194,239,255)" />
      <text xml:space="preserve" x="876" y="885" clip-path="url(#clipPath51)" stroke="none">in08</text>
      <rect x="855" y="990" clip-path="url(#clipPath52)" fill="rgb(194,239,255)" width="20" height="40" stroke="none" />
      <rect x="855" y="990" clip-path="url(#clipPath52)" fill="none" width="19" height="39" stroke="rgb(194,239,255)" />
      <text xml:space="preserve" x="876" y="1005" clip-path="url(#clipPath53)" stroke="none">in09</text>
      <rect x="855" y="1230" clip-path="url(#clipPath54)" fill="rgb(194,239,255)" width="20" height="40" stroke="none" />
      <rect x="855" y="1230" clip-path="url(#clipPath54)" fill="none" width="19" height="39" stroke="rgb(194,239,255)" />
      <text xml:space="preserve" x="876" y="1245" clip-path="url(#clipPath55)" stroke="none">in11</text>
      <line clip-path="url(#clipPath56)" fill="none" x1="489" x2="45" y1="89" y2="89" stroke="rgb(136,136,136)" stroke-width="2.1" />
      <text x="153" y="86" clip-path="url(#clipPath57)" stroke="none" stroke-width="2.1" xml:space="preserve">oeUpdateDispatchStatus("InTransit")</text>
      <line clip-path="url(#clipPath58)" fill="none" x1="52" x2="45" y1="86" y2="89" stroke="rgb(136,136,136)" stroke-width="2.1" />
      <line clip-path="url(#clipPath58)" fill="none" x1="45" x2="52" y1="89" y2="92" stroke="rgb(136,136,136)" stroke-width="2.1" />
      <line clip-path="url(#clipPath56)" fill="none" x1="679" x2="45" y1="209" y2="209" stroke="rgb(136,136,136)" stroke-width="2.1" />
      <text x="264" y="206" clip-path="url(#clipPath59)" stroke="none" stroke-width="2.1" xml:space="preserve">oeRefreshMap("AdtCrisisID=1")</text>
      <line clip-path="url(#clipPath60)" fill="none" x1="52" x2="45" y1="206" y2="209" stroke="rgb(136,136,136)" stroke-width="2.1" />
      <line clip-path="url(#clipPath60)" fill="none" x1="45" x2="52" y1="209" y2="212" stroke="rgb(136,136,136)" stroke-width="2.1" />
      <line clip-path="url(#clipPath56)" fill="none" x1="679" x2="45" y1="329" y2="329" stroke="rgb(136,136,136)" stroke-width="2.1" />
      <text x="202" y="326" clip-path="url(#clipPath61)" stroke="none" stroke-width="2.1" xml:space="preserve">oeMessage("AMessage=I will arrive in 30 minutes")</text>
      <line clip-path="url(#clipPath62)" fill="none" x1="52" x2="45" y1="326" y2="329" stroke="rgb(136,136,136)" stroke-width="2.1" />
      <line clip-path="url(#clipPath62)" fill="none" x1="45" x2="52" y1="329" y2="332" stroke="rgb(136,136,136)" stroke-width="2.1" />
      <line clip-path="url(#clipPath56)" fill="none" x1="679" x2="45" y1="569" y2="569" stroke="rgb(136,136,136)" stroke-width="2.1" />
      <text x="248" y="566" clip-path="url(#clipPath63)" stroke="none" stroke-width="2.1" xml:space="preserve">oeUpdateDispatchStatus("InTransit")</text>
      <line clip-path="url(#clipPath64)" fill="none" x1="52" x2="45" y1="566" y2="569" stroke="rgb(136,136,136)" stroke-width="2.1" />
      <line clip-path="url(#clipPath64)" fill="none" x1="45" x2="52" y1="569" y2="572" stroke="rgb(136,136,136)" stroke-width="2.1" />
      <line clip-path="url(#clipPath56)" fill="none" x1="489" x2="45" y1="689" y2="689" stroke="rgb(136,136,136)" stroke-width="2.1" />
      <text x="159" y="686" clip-path="url(#clipPath65)" stroke="none" stroke-width="2.1" xml:space="preserve">oeUpdateDispatchStatus("Arrived")</text>
      <line clip-path="url(#clipPath66)" fill="none" x1="52" x2="45" y1="686" y2="689" stroke="rgb(136,136,136)" stroke-width="2.1" />
      <line clip-path="url(#clipPath66)" fill="none" x1="45" x2="52" y1="689" y2="692" stroke="rgb(136,136,136)" stroke-width="2.1" />
      <line clip-path="url(#clipPath56)" fill="none" x1="489" x2="45" y1="809" y2="809" stroke="rgb(136,136,136)" stroke-width="2.1" />
      <text x="182" y="806" clip-path="url(#clipPath67)" stroke="none" stroke-width="2.1" xml:space="preserve">oeRequestHelp("Police","1")</text>
      <line clip-path="url(#clipPath68)" fill="none" x1="52" x2="45" y1="806" y2="809" stroke="rgb(136,136,136)" stroke-width="2.1" />
      <line clip-path="url(#clipPath68)" fill="none" x1="45" x2="52" y1="809" y2="812" stroke="rgb(136,136,136)" stroke-width="2.1" />
      <line clip-path="url(#clipPath56)" fill="none" x1="855" x2="45" y1="929" y2="929" stroke="rgb(136,136,136)" stroke-width="2.1" />
      <text x="336" y="926" clip-path="url(#clipPath69)" stroke="none" stroke-width="2.1" xml:space="preserve">oeUpdateDispatchStatus("InTransit")</text>
      <line clip-path="url(#clipPath70)" fill="none" x1="52" x2="45" y1="926" y2="929" stroke="rgb(136,136,136)" stroke-width="2.1" />
      <line clip-path="url(#clipPath70)" fill="none" x1="45" x2="52" y1="929" y2="932" stroke="rgb(136,136,136)" stroke-width="2.1" />
      <line clip-path="url(#clipPath56)" fill="none" x1="679" x2="45" y1="1049" y2="1049" stroke="rgb(136,136,136)" stroke-width="2.1" />
      <text x="254" y="1046" clip-path="url(#clipPath71)" stroke="none" stroke-width="2.1" xml:space="preserve">oeUpdateDispatchStatus("Arrived")</text>
      <line clip-path="url(#clipPath72)" fill="none" x1="52" x2="45" y1="1046" y2="1049" stroke="rgb(136,136,136)" stroke-width="2.1" />
      <line clip-path="url(#clipPath72)" fill="none" x1="45" x2="52" y1="1049" y2="1052" stroke="rgb(136,136,136)" stroke-width="2.1" />
      <line clip-path="url(#clipPath56)" fill="none" x1="855" x2="45" y1="1169" y2="1169" stroke="rgb(136,136,136)" stroke-width="2.1" />
      <text x="342" y="1166" clip-path="url(#clipPath73)" stroke="none" stroke-width="2.1" xml:space="preserve">oeUpdateDispatchStatus("Arrived")</text>
      <line clip-path="url(#clipPath74)" fill="none" x1="52" x2="45" y1="1166" y2="1169" stroke="rgb(136,136,136)" stroke-width="2.1" />
      <line clip-path="url(#clipPath74)" fill="none" x1="45" x2="52" y1="1169" y2="1172" stroke="rgb(136,136,136)" stroke-width="2.1" />
    </g>
    <g stroke-linecap="butt" font-size="13" fill="rgb(136,136,136)" font-family="'Lucida Sans Unicode'" stroke-dasharray="5,5" stroke="rgb(136,136,136)" stroke-width="2.1">
      <line clip-path="url(#clipPath56)" fill="none" x1="489" x2="45" y1="149" y2="149" />
      <text x="151" y="146" clip-path="url(#clipPath75)" fill="black" stroke="none" xml:space="preserve">ieMessage(Dispatch Status Updated.)</text>
      <line clip-path="url(#clipPath76)" fill="none" x1="482" x2="489" y1="152" y2="149" stroke-dasharray="none" />
      <line clip-path="url(#clipPath76)" fill="none" x1="489" x2="482" y1="149" y2="146" stroke-dasharray="none" />
      <line clip-path="url(#clipPath56)" fill="none" x1="679" x2="45" y1="269" y2="269" />
      <text x="186" y="266" clip-path="url(#clipPath77)" fill="black" stroke="none" xml:space="preserve">ieReceiveMap(environment.rndtMapWithPin.image.value)</text>
      <line clip-path="url(#clipPath78)" fill="none" x1="672" x2="679" y1="272" y2="269" stroke-dasharray="none" />
      <line clip-path="url(#clipPath78)" fill="none" x1="679" x2="672" y1="269" y2="266" stroke-dasharray="none" />
      <line clip-path="url(#clipPath56)" fill="none" x1="304" x2="45" y1="389" y2="389" />
      <text x="58" y="386" clip-path="url(#clipPath79)" fill="black" stroke="none" xml:space="preserve">ieMessage(I will arrive in 30 minutes)</text>
      <line clip-path="url(#clipPath80)" fill="none" x1="297" x2="304" y1="392" y2="389" stroke-dasharray="none" />
      <line clip-path="url(#clipPath80)" fill="none" x1="304" x2="297" y1="389" y2="386" stroke-dasharray="none" />
      <line clip-path="url(#clipPath56)" fill="none" x1="489" x2="45" y1="449" y2="449" />
      <text x="151" y="446" clip-path="url(#clipPath81)" fill="black" stroke="none" xml:space="preserve">ieMessage(I will arrive in 30 minutes)</text>
      <line clip-path="url(#clipPath82)" fill="none" x1="482" x2="489" y1="452" y2="449" stroke-dasharray="none" />
      <line clip-path="url(#clipPath82)" fill="none" x1="489" x2="482" y1="449" y2="446" stroke-dasharray="none" />
      <line clip-path="url(#clipPath56)" fill="none" x1="679" x2="45" y1="509" y2="509" />
      <text x="246" y="506" clip-path="url(#clipPath83)" fill="black" stroke="none" xml:space="preserve">ieMessage(I will arrive in 30 minutes)</text>
      <line clip-path="url(#clipPath84)" fill="none" x1="672" x2="679" y1="512" y2="509" stroke-dasharray="none" />
      <line clip-path="url(#clipPath84)" fill="none" x1="679" x2="672" y1="509" y2="506" stroke-dasharray="none" />
      <line clip-path="url(#clipPath56)" fill="none" x1="679" x2="45" y1="629" y2="629" />
      <text x="246" y="626" clip-path="url(#clipPath85)" fill="black" stroke="none" xml:space="preserve">ieMessage(Dispatch Status Updated.)</text>
      <line clip-path="url(#clipPath86)" fill="none" x1="672" x2="679" y1="632" y2="629" stroke-dasharray="none" />
      <line clip-path="url(#clipPath86)" fill="none" x1="679" x2="672" y1="629" y2="626" stroke-dasharray="none" />
      <line clip-path="url(#clipPath56)" fill="none" x1="489" x2="45" y1="749" y2="749" />
      <text x="151" y="746" clip-path="url(#clipPath87)" fill="black" stroke="none" xml:space="preserve">ieMessage(Dispatch Status Updated.)</text>
      <line clip-path="url(#clipPath88)" fill="none" x1="482" x2="489" y1="752" y2="749" stroke-dasharray="none" />
      <line clip-path="url(#clipPath88)" fill="none" x1="489" x2="482" y1="749" y2="746" stroke-dasharray="none" />
      <line clip-path="url(#clipPath56)" fill="none" x1="855" x2="45" y1="869" y2="869" />
      <text x="146" y="866" clip-path="url(#clipPath89)" fill="black" stroke="none" xml:space="preserve">ieReceiveNewCrisisEvent(1,Walter,Witness,691123456,environment.rndtMapWithPin.image.value)</text>
      <line clip-path="url(#clipPath90)" fill="none" x1="848" x2="855" y1="872" y2="869" stroke-dasharray="none" />
      <line clip-path="url(#clipPath90)" fill="none" x1="855" x2="848" y1="869" y2="866" stroke-dasharray="none" />
      <line clip-path="url(#clipPath56)" fill="none" x1="855" x2="45" y1="989" y2="989" />
      <text x="334" y="986" clip-path="url(#clipPath91)" fill="black" stroke="none" xml:space="preserve">ieMessage(Dispatch Status Updated.)</text>
      <line clip-path="url(#clipPath92)" fill="none" x1="848" x2="855" y1="992" y2="989" stroke-dasharray="none" />
      <line clip-path="url(#clipPath92)" fill="none" x1="855" x2="848" y1="989" y2="986" stroke-dasharray="none" />
      <line clip-path="url(#clipPath56)" fill="none" x1="679" x2="45" y1="1109" y2="1109" />
      <text x="246" y="1106" clip-path="url(#clipPath93)" fill="black" stroke="none" xml:space="preserve">ieMessage(Dispatch Status Updated.)</text>
      <line clip-path="url(#clipPath94)" fill="none" x1="672" x2="679" y1="1112" y2="1109" stroke-dasharray="none" />
      <line clip-path="url(#clipPath94)" fill="none" x1="679" x2="672" y1="1109" y2="1106" stroke-dasharray="none" />
      <line clip-path="url(#clipPath56)" fill="none" x1="855" x2="45" y1="1229" y2="1229" />
      <text x="334" y="1226" clip-path="url(#clipPath95)" fill="black" stroke="none" xml:space="preserve">ieMessage(Dispatch Status Updated.)</text>
      <line clip-path="url(#clipPath96)" fill="none" x1="848" x2="855" y1="1232" y2="1229" stroke-dasharray="none" />
      <line clip-path="url(#clipPath96)" fill="none" x1="855" x2="848" y1="1229" y2="1226" stroke-dasharray="none" />
    </g>
  </g>
</svg>

