<?xml version="1.0" encoding="UTF-8"?>
<svg xmlns="http://www.w3.org/2000/svg" xmlns:xlink="http://www.w3.org/1999/xlink" stroke-dasharray="none" shape-rendering="auto" font-family="'Dialog'" width="1142" text-rendering="auto" fill-opacity="1" contentScriptType="text/ecmascript" color-interpolation="auto" color-rendering="auto" preserveAspectRatio="xMidYMid meet" font-size="12" viewBox="0 0 1142 800" fill="black" stroke="black" image-rendering="auto" stroke-miterlimit="10" zoomAndPan="magnify" version="1.0" stroke-linecap="square" stroke-linejoin="miter" contentStyleType="text/css" font-style="normal" height="800" stroke-width="1" stroke-dashoffset="0" font-weight="normal" stroke-opacity="1">
  <!--Generated by the Batik Graphics2D SVG Generator-->
  <defs id="genericDefs" />
  <g>
    <defs id="defs1">
      <clipPath clipPathUnits="userSpaceOnUse" id="clipPath1">
        <path d="M9 9 L81 9 L81 41 L9 41 L9 9 Z" />
      </clipPath>
      <clipPath clipPathUnits="userSpaceOnUse" id="clipPath2">
        <path d="M9 9 L84 9 L84 41 L9 41 L9 9 Z" />
      </clipPath>
      <clipPath clipPathUnits="userSpaceOnUse" id="clipPath3">
        <path d="M39 39 L51 39 L51 791 L39 791 L39 39 Z" />
      </clipPath>
      <clipPath clipPathUnits="userSpaceOnUse" id="clipPath4">
        <path d="M398 9 L550 9 L550 61 L398 61 L398 9 Z" />
      </clipPath>
      <clipPath clipPathUnits="userSpaceOnUse" id="clipPath5">
        <path d="M398 9 L553 9 L553 61 L398 61 L398 9 Z" />
      </clipPath>
      <clipPath clipPathUnits="userSpaceOnUse" id="clipPath6">
        <path d="M468 59 L480 59 L480 791 L468 791 L468 59 Z" />
      </clipPath>
      <clipPath clipPathUnits="userSpaceOnUse" id="clipPath7">
        <path d="M463 89 L485 89 L485 131 L463 131 L463 89 Z" />
      </clipPath>
      <clipPath clipPathUnits="userSpaceOnUse" id="clipPath8">
        <path d="M484 89 L526 89 L526 107 L484 107 L484 89 Z" />
      </clipPath>
      <clipPath clipPathUnits="userSpaceOnUse" id="clipPath9">
        <path d="M463 349 L485 349 L485 391 L463 391 L463 349 Z" />
      </clipPath>
      <clipPath clipPathUnits="userSpaceOnUse" id="clipPath10">
        <path d="M484 349 L526 349 L526 367 L484 367 L484 349 Z" />
      </clipPath>
      <clipPath clipPathUnits="userSpaceOnUse" id="clipPath11">
        <path d="M463 538 L485 538 L485 573 L463 573 L463 538 Z" />
      </clipPath>
      <clipPath clipPathUnits="userSpaceOnUse" id="clipPath12">
        <path d="M484 538 L526 538 L526 556 L484 556 L484 538 Z" />
      </clipPath>
      <clipPath clipPathUnits="userSpaceOnUse" id="clipPath13">
        <path d="M463 279 L485 279 L485 321 L463 321 L463 279 Z" />
      </clipPath>
      <clipPath clipPathUnits="userSpaceOnUse" id="clipPath14">
        <path d="M484 279 L517 279 L517 297 L484 297 L484 279 Z" />
      </clipPath>
      <clipPath clipPathUnits="userSpaceOnUse" id="clipPath15">
        <path d="M463 422 L485 422 L485 464 L463 464 L463 422 Z" />
      </clipPath>
      <clipPath clipPathUnits="userSpaceOnUse" id="clipPath16">
        <path d="M484 422 L517 422 L517 440 L484 440 L484 422 Z" />
      </clipPath>
      <clipPath clipPathUnits="userSpaceOnUse" id="clipPath17">
        <path d="M558 9 L750 9 L750 61 L558 61 L558 9 Z" />
      </clipPath>
      <clipPath clipPathUnits="userSpaceOnUse" id="clipPath18">
        <path d="M558 9 L753 9 L753 61 L558 61 L558 9 Z" />
      </clipPath>
      <clipPath clipPathUnits="userSpaceOnUse" id="clipPath19">
        <path d="M648 59 L660 59 L660 791 L648 791 L648 59 Z" />
      </clipPath>
      <clipPath clipPathUnits="userSpaceOnUse" id="clipPath20">
        <path d="M643 225 L665 225 L665 267 L643 267 L643 225 Z" />
      </clipPath>
      <clipPath clipPathUnits="userSpaceOnUse" id="clipPath21">
        <path d="M664 225 L706 225 L706 243 L664 243 L664 225 Z" />
      </clipPath>
      <clipPath clipPathUnits="userSpaceOnUse" id="clipPath22">
        <path d="M643 159 L665 159 L665 201 L643 201 L643 159 Z" />
      </clipPath>
      <clipPath clipPathUnits="userSpaceOnUse" id="clipPath23">
        <path d="M664 159 L697 159 L697 177 L664 177 L664 159 Z" />
      </clipPath>
      <clipPath clipPathUnits="userSpaceOnUse" id="clipPath24">
        <path d="M758 9 L936 9 L936 61 L758 61 L758 9 Z" />
      </clipPath>
      <clipPath clipPathUnits="userSpaceOnUse" id="clipPath25">
        <path d="M758 9 L939 9 L939 61 L758 61 L758 9 Z" />
      </clipPath>
      <clipPath clipPathUnits="userSpaceOnUse" id="clipPath26">
        <path d="M841 59 L853 59 L853 791 L841 791 L841 59 Z" />
      </clipPath>
      <clipPath clipPathUnits="userSpaceOnUse" id="clipPath27">
        <path d="M836 619 L858 619 L858 661 L836 661 L836 619 Z" />
      </clipPath>
      <clipPath clipPathUnits="userSpaceOnUse" id="clipPath28">
        <path d="M857 619 L890 619 L890 637 L857 637 L857 619 Z" />
      </clipPath>
      <clipPath clipPathUnits="userSpaceOnUse" id="clipPath29">
        <path d="M947 9 L1133 9 L1133 61 L947 61 L947 9 Z" />
      </clipPath>
      <clipPath clipPathUnits="userSpaceOnUse" id="clipPath30">
        <path d="M947 9 L1136 9 L1136 61 L947 61 L947 9 Z" />
      </clipPath>
      <clipPath clipPathUnits="userSpaceOnUse" id="clipPath31">
        <path d="M1034 59 L1046 59 L1046 791 L1034 791 L1034 59 Z" />
      </clipPath>
      <clipPath clipPathUnits="userSpaceOnUse" id="clipPath32">
        <path d="M1029 699 L1051 699 L1051 741 L1029 741 L1029 699 Z" />
      </clipPath>
      <clipPath clipPathUnits="userSpaceOnUse" id="clipPath33">
        <path d="M1050 699 L1083 699 L1083 717 L1050 717 L1050 699 Z" />
      </clipPath>
      <clipPath clipPathUnits="userSpaceOnUse" id="clipPath34">
        <path d="M-1 -1 L1143 -1 L1143 801 L-1 801 L-1 -1 Z" />
      </clipPath>
      <clipPath clipPathUnits="userSpaceOnUse" id="clipPath35">
        <path d="M48 71 L464 71 L464 89 L48 89 L48 71 Z" />
      </clipPath>
      <clipPath clipPathUnits="userSpaceOnUse" id="clipPath36">
        <path d="M43 85 L55 85 L55 96 L43 96 L43 85 Z" />
      </clipPath>
      <clipPath clipPathUnits="userSpaceOnUse" id="clipPath37">
        <path d="M101 205 L528 205 L528 230 L101 230 L101 205 Z" />
      </clipPath>
      <clipPath clipPathUnits="userSpaceOnUse" id="clipPath38">
        <path d="M43 221 L55 221 L55 232 L43 232 L43 221 Z" />
      </clipPath>
      <clipPath clipPathUnits="userSpaceOnUse" id="clipPath39">
        <path d="M154 331 L357 331 L357 349 L154 349 L154 331 Z" />
      </clipPath>
      <clipPath clipPathUnits="userSpaceOnUse" id="clipPath40">
        <path d="M43 345 L55 345 L55 356 L43 356 L43 345 Z" />
      </clipPath>
      <clipPath clipPathUnits="userSpaceOnUse" id="clipPath41">
        <path d="M55 454 L476 454 L476 556 L55 556 L55 454 Z" />
      </clipPath>
      <clipPath clipPathUnits="userSpaceOnUse" id="clipPath42">
        <path d="M55 454 L475 454 L475 556 L55 556 L55 454 Z" />
      </clipPath>
      <clipPath clipPathUnits="userSpaceOnUse" id="clipPath43">
        <path d="M43 534 L55 534 L55 545 L43 545 L43 534 Z" />
      </clipPath>
      <clipPath clipPathUnits="userSpaceOnUse" id="clipPath44">
        <path d="M191 141 L473 141 L473 159 L191 159 L191 141 Z" />
      </clipPath>
      <clipPath clipPathUnits="userSpaceOnUse" id="clipPath45">
        <path d="M635 155 L647 155 L647 166 L635 166 L635 155 Z" />
      </clipPath>
      <clipPath clipPathUnits="userSpaceOnUse" id="clipPath46">
        <path d="M65 258 L484 258 L484 276 L65 276 L65 258 Z" />
      </clipPath>
      <clipPath clipPathUnits="userSpaceOnUse" id="clipPath47">
        <path d="M455 275 L467 275 L467 286 L455 286 L455 275 Z" />
      </clipPath>
      <clipPath clipPathUnits="userSpaceOnUse" id="clipPath48">
        <path d="M140 404 L372 404 L372 422 L140 422 L140 404 Z" />
      </clipPath>
      <clipPath clipPathUnits="userSpaceOnUse" id="clipPath49">
        <path d="M455 418 L467 418 L467 429 L455 429 L455 418 Z" />
      </clipPath>
      <clipPath clipPathUnits="userSpaceOnUse" id="clipPath50">
        <path d="M42 592 L1008 592 L1008 619 L42 619 L42 592 Z" />
      </clipPath>
      <clipPath clipPathUnits="userSpaceOnUse" id="clipPath51">
        <path d="M828 615 L840 615 L840 626 L828 626 L828 615 Z" />
      </clipPath>
      <clipPath clipPathUnits="userSpaceOnUse" id="clipPath52">
        <path d="M55 678 L995 678 L995 696 L55 696 L55 678 Z" />
      </clipPath>
      <clipPath clipPathUnits="userSpaceOnUse" id="clipPath53">
        <path d="M1021 695 L1033 695 L1033 706 L1021 706 L1021 695 Z" />
      </clipPath>
    </defs>
    <g font-size="13" fill="rgb(238,201,142)" font-family="'Lucida Sans Unicode'" stroke-linejoin="round" stroke="rgb(238,201,142)" stroke-width="0" stroke-miterlimit="0">
      <rect x="10" y="10" clip-path="url(#clipPath1)" width="70" height="30" stroke="none" />
    </g>
    <g stroke-width="0.1" font-size="13" font-family="'Lucida Sans Unicode'" stroke-linecap="butt">
      <rect x="10" y="10" clip-path="url(#clipPath1)" fill="none" width="69" height="29" />
      <text xml:space="preserve" x="22" y="32" clip-path="url(#clipPath2)" stroke="none">System</text>
      <line clip-path="url(#clipPath3)" fill="none" x1="44" x2="44" y1="40" y2="790" stroke-dasharray="10,10" stroke-width="1.1" />
    </g>
    <g stroke-linecap="butt" font-size="13" fill="rgb(255,245,181)" font-family="'Lucida Sans Unicode'" stroke-dasharray="10,10" stroke="rgb(255,245,181)" stroke-width="1.1">
      <rect x="399" y="10" clip-path="url(#clipPath4)" width="150" height="50" stroke="none" />
    </g>
    <g stroke-width="0.1" font-size="13" font-family="'Lucida Sans Unicode'" stroke-linecap="butt">
      <rect x="399" y="10" clip-path="url(#clipPath4)" fill="none" width="149" height="49" />
      <text xml:space="preserve" x="450" y="34" clip-path="url(#clipPath5)" stroke="none">Camille</text>
      <text xml:space="preserve" x="400" y="50" clip-path="url(#clipPath5)" stroke="none">: actCentralCoordinator</text>
      <line clip-path="url(#clipPath6)" fill="none" x1="473" x2="473" y1="60" y2="790" stroke-dasharray="10,10" stroke-width="1.1" />
    </g>
    <g stroke-linecap="butt" font-size="13" fill="rgb(39,76,114)" font-family="'Lucida Sans Unicode'" stroke-dasharray="10,10" stroke="rgb(39,76,114)" stroke-width="1.1">
      <rect x="464" y="90" clip-path="url(#clipPath7)" width="20" height="40" stroke="none" />
      <rect x="464" y="90" clip-path="url(#clipPath7)" fill="none" width="19" stroke-dasharray="none" height="39" stroke-width="0.1" />
    </g>
    <g stroke-width="0.1" font-size="13" font-family="'Lucida Sans Unicode'" stroke-linecap="butt">
      <text xml:space="preserve" x="485" y="105" clip-path="url(#clipPath8)" stroke="none">out01</text>
      <rect x="464" y="350" clip-path="url(#clipPath9)" fill="rgb(39,76,114)" width="20" height="40" stroke="none" />
      <rect x="464" y="350" clip-path="url(#clipPath9)" fill="none" width="19" height="39" stroke="rgb(39,76,114)" />
      <text xml:space="preserve" x="485" y="365" clip-path="url(#clipPath10)" stroke="none">out03</text>
      <rect x="464" y="539" clip-path="url(#clipPath11)" fill="rgb(39,76,114)" width="20" height="33" stroke="none" />
      <rect x="464" y="539" clip-path="url(#clipPath11)" fill="none" width="19" height="32" stroke="rgb(39,76,114)" />
      <text xml:space="preserve" x="485" y="554" clip-path="url(#clipPath12)" stroke="none">out04</text>
      <rect x="464" y="280" clip-path="url(#clipPath13)" fill="rgb(194,239,255)" width="20" height="40" stroke="none" />
      <rect x="464" y="280" clip-path="url(#clipPath13)" fill="none" width="19" height="39" stroke="rgb(194,239,255)" />
      <text xml:space="preserve" x="485" y="295" clip-path="url(#clipPath14)" stroke="none">in02</text>
      <rect x="464" y="423" clip-path="url(#clipPath15)" fill="rgb(194,239,255)" width="20" height="40" stroke="none" />
      <rect x="464" y="423" clip-path="url(#clipPath15)" fill="none" width="19" height="39" stroke="rgb(194,239,255)" />
      <text xml:space="preserve" x="485" y="438" clip-path="url(#clipPath16)" stroke="none">in03</text>
      <rect x="559" y="10" clip-path="url(#clipPath17)" fill="rgb(255,245,181)" width="190" height="50" stroke="none" />
      <rect x="559" y="10" clip-path="url(#clipPath17)" fill="none" width="189" height="49" />
      <text xml:space="preserve" x="631" y="34" clip-path="url(#clipPath18)" stroke="none">Orange</text>
      <text xml:space="preserve" x="561" y="50" clip-path="url(#clipPath18)" stroke="none">: actCommunicationCompany</text>
      <line clip-path="url(#clipPath19)" fill="none" x1="653" x2="653" y1="60" y2="790" stroke-dasharray="10,10" stroke-width="1.1" />
    </g>
    <g stroke-linecap="butt" font-size="13" fill="rgb(39,76,114)" font-family="'Lucida Sans Unicode'" stroke-dasharray="10,10" stroke="rgb(39,76,114)" stroke-width="1.1">
      <rect x="644" y="226" clip-path="url(#clipPath20)" width="20" height="40" stroke="none" />
      <rect x="644" y="226" clip-path="url(#clipPath20)" fill="none" width="19" stroke-dasharray="none" height="39" stroke-width="0.1" />
    </g>
    <g stroke-width="0.1" font-size="13" font-family="'Lucida Sans Unicode'" stroke-linecap="butt">
      <text xml:space="preserve" x="665" y="241" clip-path="url(#clipPath21)" stroke="none">out02</text>
      <rect x="644" y="160" clip-path="url(#clipPath22)" fill="rgb(194,239,255)" width="20" height="40" stroke="none" />
      <rect x="644" y="160" clip-path="url(#clipPath22)" fill="none" width="19" height="39" stroke="rgb(194,239,255)" />
      <text xml:space="preserve" x="665" y="175" clip-path="url(#clipPath23)" stroke="none">in01</text>
      <rect x="759" y="10" clip-path="url(#clipPath24)" fill="rgb(255,245,181)" width="176" height="50" stroke="none" />
      <rect x="759" y="10" clip-path="url(#clipPath24)" fill="none" width="175" height="49" />
      <text xml:space="preserve" x="830" y="34" clip-path="url(#clipPath25)" stroke="none">Fabio</text>
      <text xml:space="preserve" x="771" y="50" clip-path="url(#clipPath25)" stroke="none">: actFiremenCoordinator</text>
      <line clip-path="url(#clipPath26)" fill="none" x1="846" x2="846" y1="60" y2="790" stroke-dasharray="10,10" stroke-width="1.1" />
    </g>
    <g stroke-linecap="butt" font-size="13" fill="rgb(194,239,255)" font-family="'Lucida Sans Unicode'" stroke-dasharray="10,10" stroke="rgb(194,239,255)" stroke-width="1.1">
      <rect x="837" y="620" clip-path="url(#clipPath27)" width="20" height="40" stroke="none" />
      <rect x="837" y="620" clip-path="url(#clipPath27)" fill="none" width="19" stroke-dasharray="none" height="39" stroke-width="0.1" />
    </g>
    <g stroke-width="0.1" font-size="13" font-family="'Lucida Sans Unicode'" stroke-linecap="butt">
      <text xml:space="preserve" x="858" y="635" clip-path="url(#clipPath28)" stroke="none">in04</text>
      <rect x="948" y="10" clip-path="url(#clipPath29)" fill="rgb(255,245,181)" width="184" height="50" stroke="none" />
      <rect x="948" y="10" clip-path="url(#clipPath29)" fill="none" width="183" height="49" />
      <text xml:space="preserve" x="1028" y="34" clip-path="url(#clipPath30)" stroke="none">Ted</text>
      <text xml:space="preserve" x="954" y="50" clip-path="url(#clipPath30)" stroke="none">: actTowServiceCoordinator</text>
      <line clip-path="url(#clipPath31)" fill="none" x1="1039" x2="1039" y1="60" y2="790" stroke-dasharray="10,10" stroke-width="1.1" />
    </g>
    <g stroke-linecap="butt" font-size="13" fill="rgb(194,239,255)" font-family="'Lucida Sans Unicode'" stroke-dasharray="10,10" stroke="rgb(194,239,255)" stroke-width="1.1">
      <rect x="1030" y="700" clip-path="url(#clipPath32)" width="20" height="40" stroke="none" />
      <rect x="1030" y="700" clip-path="url(#clipPath32)" fill="none" width="19" stroke-dasharray="none" height="39" stroke-width="0.1" />
    </g>
    <g stroke-width="0.1" font-size="13" font-family="'Lucida Sans Unicode'" stroke-linecap="butt">
      <text xml:space="preserve" x="1051" y="715" clip-path="url(#clipPath33)" stroke="none">in05</text>
      <line clip-path="url(#clipPath34)" fill="none" x1="464" x2="45" y1="90" y2="90" stroke="rgb(136,136,136)" stroke-width="2.1" />
      <text x="49" y="87" clip-path="url(#clipPath35)" stroke="none" stroke-width="2.1" xml:space="preserve">oeRequestCrisisEventLocation("AdtPhoneNumber=691 12 34 56")</text>
      <line clip-path="url(#clipPath36)" fill="none" x1="52" x2="45" y1="87" y2="90" stroke="rgb(136,136,136)" stroke-width="2.1" />
      <line clip-path="url(#clipPath36)" fill="none" x1="45" x2="52" y1="90" y2="93" stroke="rgb(136,136,136)" stroke-width="2.1" />
      <line clip-path="url(#clipPath34)" fill="none" x1="644" x2="45" y1="226" y2="226" stroke="rgb(136,136,136)" stroke-width="2.1" />
      <text x="104" y="224" clip-path="url(#clipPath37)" stroke="none" stroke-width="2.1" xml:space="preserve">oeReceiveCrisisEventLocation("Latitude=75.08, Longitude=23.03")</text>
      <line clip-path="url(#clipPath38)" fill="none" x1="52" x2="45" y1="223" y2="226" stroke="rgb(136,136,136)" stroke-width="2.1" />
      <line clip-path="url(#clipPath38)" fill="none" x1="45" x2="52" y1="226" y2="229" stroke="rgb(136,136,136)" stroke-width="2.1" />
      <line clip-path="url(#clipPath34)" fill="none" x1="464" x2="45" y1="350" y2="350" stroke="rgb(136,136,136)" stroke-width="2.1" />
      <text x="155" y="347" clip-path="url(#clipPath39)" stroke="none" stroke-width="2.1" xml:space="preserve">oeConfirmCrisisEventLocation()</text>
      <line clip-path="url(#clipPath40)" fill="none" x1="52" x2="45" y1="347" y2="350" stroke="rgb(136,136,136)" stroke-width="2.1" />
      <line clip-path="url(#clipPath40)" fill="none" x1="45" x2="52" y1="350" y2="353" stroke="rgb(136,136,136)" stroke-width="2.1" />
      <line clip-path="url(#clipPath34)" fill="none" x1="464" x2="45" y1="539" y2="539" stroke="rgb(136,136,136)" stroke-width="2.1" />
      <text x="70" y="488" clip-path="url(#clipPath41)" stroke="none" stroke-width="2.1" xml:space="preserve">oeCreateNewCrisisEvent("AdtCrisisID=1","AdtName=Walter","</text>
      <text x="68" y="504" clip-path="url(#clipPath41)" stroke="none" stroke-width="2.1" xml:space="preserve">AenHumanType=Witness","AdtPhoneNumber=691123456","A </text>
      <text x="59" y="520" clip-path="url(#clipPath41)" stroke="none" stroke-width="2.1" xml:space="preserve">string for the image with the pins","The Witness can't stay at the </text>
      <text x="171" y="536" clip-path="url(#clipPath42)" stroke="none" stroke-width="2.1" xml:space="preserve">accident's location for long.")</text>
      <line clip-path="url(#clipPath43)" fill="none" x1="52" x2="45" y1="536" y2="539" stroke="rgb(136,136,136)" stroke-width="2.1" />
      <line clip-path="url(#clipPath43)" fill="none" x1="45" x2="52" y1="539" y2="542" stroke="rgb(136,136,136)" stroke-width="2.1" />
    </g>
    <g stroke-linecap="butt" font-size="13" fill="rgb(136,136,136)" font-family="'Lucida Sans Unicode'" stroke-dasharray="5,5" stroke="rgb(136,136,136)" stroke-width="2.1">
      <line clip-path="url(#clipPath34)" fill="none" x1="644" x2="45" y1="160" y2="160" />
      <text x="192" y="157" clip-path="url(#clipPath44)" fill="black" stroke="none" xml:space="preserve">ieRequestCrisisEventLocation(691 12 34 56)</text>
      <line clip-path="url(#clipPath45)" fill="none" x1="637" x2="644" y1="163" y2="160" stroke-dasharray="none" />
      <line clip-path="url(#clipPath45)" fill="none" x1="644" x2="637" y1="160" y2="157" stroke-dasharray="none" />
      <line clip-path="url(#clipPath34)" fill="none" x1="464" x2="45" y1="280" y2="280" />
      <text x="66" y="274" clip-path="url(#clipPath46)" fill="black" stroke="none" xml:space="preserve">ieReceiveCrisisEventLocation(A string for the image with the pins)</text>
      <line clip-path="url(#clipPath47)" fill="none" x1="457" x2="464" y1="283" y2="280" stroke-dasharray="none" />
      <line clip-path="url(#clipPath47)" fill="none" x1="464" x2="457" y1="280" y2="277" stroke-dasharray="none" />
      <line clip-path="url(#clipPath34)" fill="none" x1="464" x2="45" y1="423" y2="423" />
      <text x="141" y="420" clip-path="url(#clipPath48)" fill="black" stroke="none" xml:space="preserve">ieConfirmCrisisEventLocation(Done)</text>
      <line clip-path="url(#clipPath49)" fill="none" x1="457" x2="464" y1="426" y2="423" stroke-dasharray="none" />
      <line clip-path="url(#clipPath49)" fill="none" x1="464" x2="457" y1="423" y2="420" stroke-dasharray="none" />
      <line clip-path="url(#clipPath34)" fill="none" x1="837" x2="45" y1="620" y2="620" />
      <text x="56" y="612" clip-path="url(#clipPath50)" fill="black" stroke="none" xml:space="preserve">ieReceiveNewCrisisEvent(1,Walter,Witness,691123456,A string for the image with the pins,The Witness can't stay at the accident's location for long.)</text>
      <line clip-path="url(#clipPath51)" fill="none" x1="830" x2="837" y1="623" y2="620" stroke-dasharray="none" />
      <line clip-path="url(#clipPath51)" fill="none" x1="837" x2="830" y1="620" y2="617" stroke-dasharray="none" />
      <line clip-path="url(#clipPath34)" fill="none" x1="1030" x2="45" y1="700" y2="700" />
      <text x="56" y="694" clip-path="url(#clipPath52)" fill="black" stroke="none" xml:space="preserve">ieReceiveNewCrisisEvent(1,Walter,Witness,691123456,A string for the image with the pins,The Witness can't stay at the accident's location for long.)</text>
      <line clip-path="url(#clipPath53)" fill="none" x1="1023" x2="1030" y1="703" y2="700" stroke-dasharray="none" />
      <line clip-path="url(#clipPath53)" fill="none" x1="1030" x2="1023" y1="700" y2="697" stroke-dasharray="none" />
    </g>
  </g>
</svg>

