<?xml version="1.0" encoding="UTF-8"?>
<svg xmlns="http://www.w3.org/2000/svg" xmlns:xlink="http://www.w3.org/1999/xlink" stroke-dasharray="none" shape-rendering="auto" font-family="'Dialog'" width="1545" text-rendering="auto" fill-opacity="1" contentScriptType="text/ecmascript" color-interpolation="auto" color-rendering="auto" preserveAspectRatio="xMidYMid meet" font-size="12" viewBox="0 0 1545 955" fill="black" stroke="black" image-rendering="auto" stroke-miterlimit="10" zoomAndPan="magnify" version="1.0" stroke-linecap="square" stroke-linejoin="miter" contentStyleType="text/css" font-style="normal" height="955" stroke-width="1" stroke-dashoffset="0" font-weight="normal" stroke-opacity="1">
  <!--Generated by the Batik Graphics2D SVG Generator-->
  <defs id="genericDefs" />
  <g>
    <defs id="defs1">
      <clipPath clipPathUnits="userSpaceOnUse" id="clipPath1">
        <path d="M412 9 L484 9 L484 41 L412 41 L412 9 Z" />
      </clipPath>
      <clipPath clipPathUnits="userSpaceOnUse" id="clipPath2">
        <path d="M412 9 L487 9 L487 41 L412 41 L412 9 Z" />
      </clipPath>
      <clipPath clipPathUnits="userSpaceOnUse" id="clipPath3">
        <path d="M442 39 L454 39 L454 946 L442 946 L442 39 Z" />
      </clipPath>
      <clipPath clipPathUnits="userSpaceOnUse" id="clipPath4">
        <path d="M801 9 L953 9 L953 61 L801 61 L801 9 Z" />
      </clipPath>
      <clipPath clipPathUnits="userSpaceOnUse" id="clipPath5">
        <path d="M801 9 L956 9 L956 61 L801 61 L801 9 Z" />
      </clipPath>
      <clipPath clipPathUnits="userSpaceOnUse" id="clipPath6">
        <path d="M871 59 L883 59 L883 946 L871 946 L871 59 Z" />
      </clipPath>
      <clipPath clipPathUnits="userSpaceOnUse" id="clipPath7">
        <path d="M866 89 L888 89 L888 131 L866 131 L866 89 Z" />
      </clipPath>
      <clipPath clipPathUnits="userSpaceOnUse" id="clipPath8">
        <path d="M887 89 L929 89 L929 107 L887 107 L887 89 Z" />
      </clipPath>
      <clipPath clipPathUnits="userSpaceOnUse" id="clipPath9">
        <path d="M866 409 L888 409 L888 444 L866 444 L866 409 Z" />
      </clipPath>
      <clipPath clipPathUnits="userSpaceOnUse" id="clipPath10">
        <path d="M887 409 L929 409 L929 427 L887 427 L887 409 Z" />
      </clipPath>
      <clipPath clipPathUnits="userSpaceOnUse" id="clipPath11">
        <path d="M866 355 L888 355 L888 397 L866 397 L866 355 Z" />
      </clipPath>
      <clipPath clipPathUnits="userSpaceOnUse" id="clipPath12">
        <path d="M887 355 L920 355 L920 373 L887 373 L887 355 Z" />
      </clipPath>
      <clipPath clipPathUnits="userSpaceOnUse" id="clipPath13">
        <path d="M866 158 L888 158 L888 200 L866 200 L866 158 Z" />
      </clipPath>
      <clipPath clipPathUnits="userSpaceOnUse" id="clipPath14">
        <path d="M887 158 L929 158 L929 176 L887 176 L887 158 Z" />
      </clipPath>
      <clipPath clipPathUnits="userSpaceOnUse" id="clipPath15">
        <path d="M866 505 L888 505 L888 547 L866 547 L866 505 Z" />
      </clipPath>
      <clipPath clipPathUnits="userSpaceOnUse" id="clipPath16">
        <path d="M887 505 L929 505 L929 523 L887 523 L887 505 Z" />
      </clipPath>
      <clipPath clipPathUnits="userSpaceOnUse" id="clipPath17">
        <path d="M866 460 L888 460 L888 502 L866 502 L866 460 Z" />
      </clipPath>
      <clipPath clipPathUnits="userSpaceOnUse" id="clipPath18">
        <path d="M887 460 L920 460 L920 478 L887 478 L887 460 Z" />
      </clipPath>
      <clipPath clipPathUnits="userSpaceOnUse" id="clipPath19">
        <path d="M961 9 L1153 9 L1153 61 L961 61 L961 9 Z" />
      </clipPath>
      <clipPath clipPathUnits="userSpaceOnUse" id="clipPath20">
        <path d="M961 9 L1156 9 L1156 61 L961 61 L961 9 Z" />
      </clipPath>
      <clipPath clipPathUnits="userSpaceOnUse" id="clipPath21">
        <path d="M1051 59 L1063 59 L1063 946 L1051 946 L1051 59 Z" />
      </clipPath>
      <clipPath clipPathUnits="userSpaceOnUse" id="clipPath22">
        <path d="M1046 301 L1068 301 L1068 343 L1046 343 L1046 301 Z" />
      </clipPath>
      <clipPath clipPathUnits="userSpaceOnUse" id="clipPath23">
        <path d="M1067 301 L1109 301 L1109 319 L1067 319 L1067 301 Z" />
      </clipPath>
      <clipPath clipPathUnits="userSpaceOnUse" id="clipPath24">
        <path d="M1046 234 L1068 234 L1068 276 L1046 276 L1046 234 Z" />
      </clipPath>
      <clipPath clipPathUnits="userSpaceOnUse" id="clipPath25">
        <path d="M1067 234 L1100 234 L1100 252 L1067 252 L1067 234 Z" />
      </clipPath>
      <clipPath clipPathUnits="userSpaceOnUse" id="clipPath26">
        <path d="M1161 9 L1339 9 L1339 61 L1161 61 L1161 9 Z" />
      </clipPath>
      <clipPath clipPathUnits="userSpaceOnUse" id="clipPath27">
        <path d="M1161 9 L1342 9 L1342 61 L1161 61 L1161 9 Z" />
      </clipPath>
      <clipPath clipPathUnits="userSpaceOnUse" id="clipPath28">
        <path d="M1244 59 L1256 59 L1256 946 L1244 946 L1244 59 Z" />
      </clipPath>
      <clipPath clipPathUnits="userSpaceOnUse" id="clipPath29">
        <path d="M1239 550 L1261 550 L1261 592 L1239 592 L1239 550 Z" />
      </clipPath>
      <clipPath clipPathUnits="userSpaceOnUse" id="clipPath30">
        <path d="M1260 550 L1293 550 L1293 568 L1260 568 L1260 550 Z" />
      </clipPath>
      <clipPath clipPathUnits="userSpaceOnUse" id="clipPath31">
        <path d="M1350 9 L1536 9 L1536 61 L1350 61 L1350 9 Z" />
      </clipPath>
      <clipPath clipPathUnits="userSpaceOnUse" id="clipPath32">
        <path d="M1350 9 L1539 9 L1539 61 L1350 61 L1350 9 Z" />
      </clipPath>
      <clipPath clipPathUnits="userSpaceOnUse" id="clipPath33">
        <path d="M1437 59 L1449 59 L1449 946 L1437 946 L1437 59 Z" />
      </clipPath>
      <clipPath clipPathUnits="userSpaceOnUse" id="clipPath34">
        <path d="M1432 595 L1454 595 L1454 637 L1432 637 L1432 595 Z" />
      </clipPath>
      <clipPath clipPathUnits="userSpaceOnUse" id="clipPath35">
        <path d="M1453 595 L1486 595 L1486 613 L1453 613 L1453 595 Z" />
      </clipPath>
      <clipPath clipPathUnits="userSpaceOnUse" id="clipPath36">
        <path d="M-1 -1 L1546 -1 L1546 956 L-1 956 L-1 -1 Z" />
      </clipPath>
      <clipPath clipPathUnits="userSpaceOnUse" id="clipPath37">
        <path d="M584 71 L734 71 L734 89 L584 89 L584 71 Z" />
      </clipPath>
      <clipPath clipPathUnits="userSpaceOnUse" id="clipPath38">
        <path d="M446 85 L458 85 L458 96 L446 96 L446 85 Z" />
      </clipPath>
      <clipPath clipPathUnits="userSpaceOnUse" id="clipPath39">
        <path d="M463 389 L869 389 L869 410 L463 410 L463 389 Z" />
      </clipPath>
      <clipPath clipPathUnits="userSpaceOnUse" id="clipPath40">
        <path d="M446 405 L458 405 L458 416 L446 416 L446 405 Z" />
      </clipPath>
      <clipPath clipPathUnits="userSpaceOnUse" id="clipPath41">
        <path d="M453 337 L865 337 L865 355 L453 355 L453 337 Z" />
      </clipPath>
      <clipPath clipPathUnits="userSpaceOnUse" id="clipPath42">
        <path d="M858 351 L870 351 L870 362 L858 362 L858 351 Z" />
      </clipPath>
      <clipPath clipPathUnits="userSpaceOnUse" id="clipPath43">
        <path d="M451 139 L867 139 L867 157 L451 157 L451 139 Z" />
      </clipPath>
      <clipPath clipPathUnits="userSpaceOnUse" id="clipPath44">
        <path d="M446 153 L458 153 L458 164 L446 164 L446 153 Z" />
      </clipPath>
      <clipPath clipPathUnits="userSpaceOnUse" id="clipPath45">
        <path d="M537 282 L960 282 L960 300 L537 300 L537 282 Z" />
      </clipPath>
      <clipPath clipPathUnits="userSpaceOnUse" id="clipPath46">
        <path d="M446 296 L458 296 L458 307 L446 307 L446 296 Z" />
      </clipPath>
      <clipPath clipPathUnits="userSpaceOnUse" id="clipPath47">
        <path d="M608 215 L890 215 L890 233 L608 233 L608 215 Z" />
      </clipPath>
      <clipPath clipPathUnits="userSpaceOnUse" id="clipPath48">
        <path d="M1038 229 L1050 229 L1050 240 L1038 240 L1038 229 Z" />
      </clipPath>
      <clipPath clipPathUnits="userSpaceOnUse" id="clipPath49">
        <path d="M23 487 L1295 487 L1295 505 L23 505 L23 487 Z" />
      </clipPath>
      <clipPath clipPathUnits="userSpaceOnUse" id="clipPath50">
        <path d="M446 501 L458 501 L458 512 L446 512 L446 501 Z" />
      </clipPath>
      <clipPath clipPathUnits="userSpaceOnUse" id="clipPath51">
        <path d="M453 442 L865 442 L865 460 L453 460 L453 442 Z" />
      </clipPath>
      <clipPath clipPathUnits="userSpaceOnUse" id="clipPath52">
        <path d="M858 456 L870 456 L870 467 L858 467 L858 456 Z" />
      </clipPath>
      <clipPath clipPathUnits="userSpaceOnUse" id="clipPath53">
        <path d="M589 532 L1103 532 L1103 550 L589 550 L589 532 Z" />
      </clipPath>
      <clipPath clipPathUnits="userSpaceOnUse" id="clipPath54">
        <path d="M1231 546 L1243 546 L1243 557 L1231 557 L1231 546 Z" />
      </clipPath>
      <clipPath clipPathUnits="userSpaceOnUse" id="clipPath55">
        <path d="M685 577 L1199 577 L1199 595 L685 595 L685 577 Z" />
      </clipPath>
      <clipPath clipPathUnits="userSpaceOnUse" id="clipPath56">
        <path d="M1424 591 L1436 591 L1436 602 L1424 602 L1424 591 Z" />
      </clipPath>
    </defs>
    <g font-size="13" fill="rgb(238,201,142)" font-family="'Lucida Sans Unicode'" stroke-linejoin="round" stroke="rgb(238,201,142)" stroke-width="0" stroke-miterlimit="0">
      <rect x="413" y="10" clip-path="url(#clipPath1)" width="70" height="30" stroke="none" />
    </g>
    <g stroke-width="0.1" font-size="13" font-family="'Lucida Sans Unicode'" stroke-linecap="butt">
      <rect x="413" y="10" clip-path="url(#clipPath1)" fill="none" width="69" height="29" />
      <text xml:space="preserve" x="425" y="32" clip-path="url(#clipPath2)" stroke="none">System</text>
      <line clip-path="url(#clipPath3)" fill="none" x1="447" x2="447" y1="40" y2="945" stroke-dasharray="10,10" stroke-width="1.1" />
    </g>
    <g stroke-linecap="butt" font-size="13" fill="rgb(255,245,181)" font-family="'Lucida Sans Unicode'" stroke-dasharray="10,10" stroke="rgb(255,245,181)" stroke-width="1.1">
      <rect x="802" y="10" clip-path="url(#clipPath4)" width="150" height="50" stroke="none" />
    </g>
    <g stroke-width="0.1" font-size="13" font-family="'Lucida Sans Unicode'" stroke-linecap="butt">
      <rect x="802" y="10" clip-path="url(#clipPath4)" fill="none" width="149" height="49" />
      <text xml:space="preserve" x="853" y="34" clip-path="url(#clipPath5)" stroke="none">Camille</text>
      <text xml:space="preserve" x="803" y="50" clip-path="url(#clipPath5)" stroke="none">: actCentralCoordinator</text>
      <line clip-path="url(#clipPath6)" fill="none" x1="876" x2="876" y1="60" y2="945" stroke-dasharray="10,10" stroke-width="1.1" />
    </g>
    <g stroke-linecap="butt" font-size="13" fill="rgb(39,76,114)" font-family="'Lucida Sans Unicode'" stroke-dasharray="10,10" stroke="rgb(39,76,114)" stroke-width="1.1">
      <rect x="867" y="90" clip-path="url(#clipPath7)" width="20" height="40" stroke="none" />
      <rect x="867" y="90" clip-path="url(#clipPath7)" fill="none" width="19" stroke-dasharray="none" height="39" stroke-width="0.1" />
    </g>
    <g stroke-width="0.1" font-size="13" font-family="'Lucida Sans Unicode'" stroke-linecap="butt">
      <text xml:space="preserve" x="888" y="105" clip-path="url(#clipPath8)" stroke="none">out01</text>
      <rect x="867" y="410" clip-path="url(#clipPath9)" fill="rgb(39,76,114)" width="20" height="33" stroke="none" />
      <rect x="867" y="410" clip-path="url(#clipPath9)" fill="none" width="19" height="32" stroke="rgb(39,76,114)" />
      <text xml:space="preserve" x="888" y="425" clip-path="url(#clipPath10)" stroke="none">out04</text>
      <rect x="867" y="356" clip-path="url(#clipPath11)" fill="rgb(194,239,255)" width="20" height="40" stroke="none" />
      <rect x="867" y="356" clip-path="url(#clipPath11)" fill="none" width="19" height="39" stroke="rgb(194,239,255)" />
      <text xml:space="preserve" x="888" y="371" clip-path="url(#clipPath12)" stroke="none">in02</text>
      <rect x="867" y="159" clip-path="url(#clipPath13)" fill="rgb(39,76,114)" width="20" height="40" stroke="none" />
      <rect x="867" y="159" clip-path="url(#clipPath13)" fill="none" width="19" height="39" stroke="rgb(39,76,114)" />
      <text xml:space="preserve" x="888" y="174" clip-path="url(#clipPath14)" stroke="none">out02</text>
      <rect x="867" y="506" clip-path="url(#clipPath15)" fill="rgb(39,76,114)" width="20" height="40" stroke="none" />
      <rect x="867" y="506" clip-path="url(#clipPath15)" fill="none" width="19" height="39" stroke="rgb(39,76,114)" />
      <text xml:space="preserve" x="888" y="521" clip-path="url(#clipPath16)" stroke="none">out05</text>
      <rect x="867" y="461" clip-path="url(#clipPath17)" fill="rgb(194,239,255)" width="20" height="40" stroke="none" />
      <rect x="867" y="461" clip-path="url(#clipPath17)" fill="none" width="19" height="39" stroke="rgb(194,239,255)" />
      <text xml:space="preserve" x="888" y="476" clip-path="url(#clipPath18)" stroke="none">in03</text>
      <rect x="962" y="10" clip-path="url(#clipPath19)" fill="rgb(255,245,181)" width="190" height="50" stroke="none" />
      <rect x="962" y="10" clip-path="url(#clipPath19)" fill="none" width="189" height="49" />
      <text xml:space="preserve" x="1034" y="34" clip-path="url(#clipPath20)" stroke="none">Orange</text>
      <text xml:space="preserve" x="964" y="50" clip-path="url(#clipPath20)" stroke="none">: actCommunicationCompany</text>
      <line clip-path="url(#clipPath21)" fill="none" x1="1056" x2="1056" y1="60" y2="945" stroke-dasharray="10,10" stroke-width="1.1" />
    </g>
    <g stroke-linecap="butt" font-size="13" fill="rgb(39,76,114)" font-family="'Lucida Sans Unicode'" stroke-dasharray="10,10" stroke="rgb(39,76,114)" stroke-width="1.1">
      <rect x="1047" y="302" clip-path="url(#clipPath22)" width="20" height="40" stroke="none" />
      <rect x="1047" y="302" clip-path="url(#clipPath22)" fill="none" width="19" stroke-dasharray="none" height="39" stroke-width="0.1" />
    </g>
    <g stroke-width="0.1" font-size="13" font-family="'Lucida Sans Unicode'" stroke-linecap="butt">
      <text xml:space="preserve" x="1068" y="317" clip-path="url(#clipPath23)" stroke="none">out03</text>
      <rect x="1047" y="235" clip-path="url(#clipPath24)" fill="rgb(194,239,255)" width="20" height="40" stroke="none" />
      <rect x="1047" y="235" clip-path="url(#clipPath24)" fill="none" width="19" height="39" stroke="rgb(194,239,255)" />
      <text xml:space="preserve" x="1068" y="250" clip-path="url(#clipPath25)" stroke="none">in01</text>
      <rect x="1162" y="10" clip-path="url(#clipPath26)" fill="rgb(255,245,181)" width="176" height="50" stroke="none" />
      <rect x="1162" y="10" clip-path="url(#clipPath26)" fill="none" width="175" height="49" />
      <text xml:space="preserve" x="1233" y="34" clip-path="url(#clipPath27)" stroke="none">Fabio</text>
      <text xml:space="preserve" x="1174" y="50" clip-path="url(#clipPath27)" stroke="none">: actFiremenCoordinator</text>
      <line clip-path="url(#clipPath28)" fill="none" x1="1249" x2="1249" y1="60" y2="945" stroke-dasharray="10,10" stroke-width="1.1" />
    </g>
    <g stroke-linecap="butt" font-size="13" fill="rgb(194,239,255)" font-family="'Lucida Sans Unicode'" stroke-dasharray="10,10" stroke="rgb(194,239,255)" stroke-width="1.1">
      <rect x="1240" y="551" clip-path="url(#clipPath29)" width="20" height="40" stroke="none" />
      <rect x="1240" y="551" clip-path="url(#clipPath29)" fill="none" width="19" stroke-dasharray="none" height="39" stroke-width="0.1" />
    </g>
    <g stroke-width="0.1" font-size="13" font-family="'Lucida Sans Unicode'" stroke-linecap="butt">
      <text xml:space="preserve" x="1261" y="566" clip-path="url(#clipPath30)" stroke="none">in04</text>
      <rect x="1351" y="10" clip-path="url(#clipPath31)" fill="rgb(255,245,181)" width="184" height="50" stroke="none" />
      <rect x="1351" y="10" clip-path="url(#clipPath31)" fill="none" width="183" height="49" />
      <text xml:space="preserve" x="1431" y="34" clip-path="url(#clipPath32)" stroke="none">Ted</text>
      <text xml:space="preserve" x="1357" y="50" clip-path="url(#clipPath32)" stroke="none">: actTowServiceCoordinator</text>
      <line clip-path="url(#clipPath33)" fill="none" x1="1442" x2="1442" y1="60" y2="945" stroke-dasharray="10,10" stroke-width="1.1" />
    </g>
    <g stroke-linecap="butt" font-size="13" fill="rgb(194,239,255)" font-family="'Lucida Sans Unicode'" stroke-dasharray="10,10" stroke="rgb(194,239,255)" stroke-width="1.1">
      <rect x="1433" y="596" clip-path="url(#clipPath34)" width="20" height="40" stroke="none" />
      <rect x="1433" y="596" clip-path="url(#clipPath34)" fill="none" width="19" stroke-dasharray="none" height="39" stroke-width="0.1" />
    </g>
    <g stroke-width="0.1" font-size="13" font-family="'Lucida Sans Unicode'" stroke-linecap="butt">
      <text xml:space="preserve" x="1454" y="611" clip-path="url(#clipPath35)" stroke="none">in05</text>
      <line clip-path="url(#clipPath36)" fill="none" x1="867" x2="448" y1="90" y2="90" stroke="rgb(136,136,136)" stroke-width="2.1" />
      <text x="585" y="87" clip-path="url(#clipPath37)" stroke="none" stroke-width="2.1" xml:space="preserve">oeAddNewCrisisEvent()</text>
      <line clip-path="url(#clipPath38)" fill="none" x1="455" x2="448" y1="87" y2="90" stroke="rgb(136,136,136)" stroke-width="2.1" />
      <line clip-path="url(#clipPath38)" fill="none" x1="448" x2="455" y1="90" y2="93" stroke="rgb(136,136,136)" stroke-width="2.1" />
      <line clip-path="url(#clipPath36)" fill="none" x1="867" x2="448" y1="410" y2="410" stroke="rgb(136,136,136)" stroke-width="2.1" />
      <text x="493" y="406" clip-path="url(#clipPath39)" stroke="none" stroke-width="2.1" xml:space="preserve">oeMovePinOnMap("Latitude=75.08, Longitude=23.03")</text>
      <line clip-path="url(#clipPath40)" fill="none" x1="455" x2="448" y1="407" y2="410" stroke="rgb(136,136,136)" stroke-width="2.1" />
      <line clip-path="url(#clipPath40)" fill="none" x1="448" x2="455" y1="410" y2="413" stroke="rgb(136,136,136)" stroke-width="2.1" />
    </g>
    <g stroke-linecap="butt" font-size="13" fill="rgb(136,136,136)" font-family="'Lucida Sans Unicode'" stroke-dasharray="5,5" stroke="rgb(136,136,136)" stroke-width="2.1">
      <line clip-path="url(#clipPath36)" fill="none" x1="867" x2="448" y1="356" y2="356" />
      <text x="454" y="353" clip-path="url(#clipPath41)" fill="black" stroke="none" xml:space="preserve">ieReceiveCrisisEventLocation(A string for the image with the pin)</text>
      <line clip-path="url(#clipPath42)" fill="none" x1="860" x2="867" y1="359" y2="356" stroke-dasharray="none" />
      <line clip-path="url(#clipPath42)" fill="none" x1="867" x2="860" y1="356" y2="353" stroke-dasharray="none" />
      <line clip-path="url(#clipPath36)" fill="none" x1="867" x2="448" y1="158" y2="158" stroke-dasharray="none" />
      <text x="452" y="155" clip-path="url(#clipPath43)" fill="black" stroke-dasharray="none" stroke="none" xml:space="preserve">oeRequestCrisisEventLocation("AdtPhoneNumber=691 12 34 56")</text>
      <line clip-path="url(#clipPath44)" fill="none" x1="455" x2="448" y1="155" y2="158" stroke-dasharray="none" />
      <line clip-path="url(#clipPath44)" fill="none" x1="448" x2="455" y1="158" y2="161" stroke-dasharray="none" />
      <line clip-path="url(#clipPath36)" fill="none" x1="1047" x2="448" y1="301" y2="301" stroke-dasharray="none" />
      <text x="538" y="298" clip-path="url(#clipPath45)" fill="black" stroke-dasharray="none" stroke="none" xml:space="preserve">oeReceiveCrisisEventLocation("Latitude=87.20, Longitude=20.25")</text>
      <line clip-path="url(#clipPath46)" fill="none" x1="455" x2="448" y1="298" y2="301" stroke-dasharray="none" />
      <line clip-path="url(#clipPath46)" fill="none" x1="448" x2="455" y1="301" y2="304" stroke-dasharray="none" />
      <line clip-path="url(#clipPath36)" fill="none" x1="1047" x2="448" y1="234" y2="234" />
      <text x="609" y="231" clip-path="url(#clipPath47)" fill="black" stroke="none" xml:space="preserve">ieRequestCrisisEventLocation(691 12 34 56)</text>
      <line clip-path="url(#clipPath48)" fill="none" x1="1040" x2="1047" y1="237" y2="234" stroke-dasharray="none" />
      <line clip-path="url(#clipPath48)" fill="none" x1="1047" x2="1040" y1="234" y2="231" stroke-dasharray="none" />
      <line clip-path="url(#clipPath36)" fill="none" x1="867" x2="448" y1="506" y2="506" stroke-dasharray="none" />
      <text x="24" y="503" clip-path="url(#clipPath49)" fill="black" stroke-dasharray="none" stroke="none" xml:space="preserve">oeCreateNewCrisisEvent("AdtName=Walter","AenHumanType=Witness","AdtPhoneNumber=691123456","A string for the image with the pins","The Witness can't stay at the accident's location for long.")</text>
      <line clip-path="url(#clipPath50)" fill="none" x1="455" x2="448" y1="503" y2="506" stroke-dasharray="none" />
      <line clip-path="url(#clipPath50)" fill="none" x1="448" x2="455" y1="506" y2="509" stroke-dasharray="none" />
      <line clip-path="url(#clipPath36)" fill="none" x1="867" x2="448" y1="461" y2="461" />
      <text x="454" y="458" clip-path="url(#clipPath51)" fill="black" stroke="none" xml:space="preserve">ieReceiveCrisisEventLocation(A string for the image with the pin)</text>
      <line clip-path="url(#clipPath52)" fill="none" x1="860" x2="867" y1="464" y2="461" stroke-dasharray="none" />
      <line clip-path="url(#clipPath52)" fill="none" x1="867" x2="860" y1="461" y2="458" stroke-dasharray="none" />
      <line clip-path="url(#clipPath36)" fill="none" x1="1240" x2="448" y1="551" y2="551" />
      <text x="590" y="548" clip-path="url(#clipPath53)" fill="black" stroke="none" xml:space="preserve">ieReceiveNewCrisisEvent(1,You have received a new Crisis Event Dispatch Order!)</text>
      <line clip-path="url(#clipPath54)" fill="none" x1="1233" x2="1240" y1="554" y2="551" stroke-dasharray="none" />
      <line clip-path="url(#clipPath54)" fill="none" x1="1240" x2="1233" y1="551" y2="548" stroke-dasharray="none" />
      <line clip-path="url(#clipPath36)" fill="none" x1="1433" x2="448" y1="596" y2="596" />
      <text x="686" y="593" clip-path="url(#clipPath55)" fill="black" stroke="none" xml:space="preserve">ieReceiveNewCrisisEvent(1,You have received a new Crisis Event Dispatch Order!)</text>
      <line clip-path="url(#clipPath56)" fill="none" x1="1426" x2="1433" y1="599" y2="596" stroke-dasharray="none" />
      <line clip-path="url(#clipPath56)" fill="none" x1="1433" x2="1426" y1="596" y2="593" stroke-dasharray="none" />
    </g>
  </g>
</svg>

