<?xml version="1.0" encoding="UTF-8"?>
<svg xmlns="http://www.w3.org/2000/svg" xmlns:xlink="http://www.w3.org/1999/xlink" stroke-dasharray="none" shape-rendering="auto" font-family="'Dialog'" width="2358" text-rendering="auto" fill-opacity="1" contentScriptType="text/ecmascript" color-interpolation="auto" color-rendering="auto" preserveAspectRatio="xMidYMid meet" font-size="12" viewBox="0 0 2358 1542" fill="black" stroke="black" image-rendering="auto" stroke-miterlimit="10" zoomAndPan="magnify" version="1.0" stroke-linecap="square" stroke-linejoin="miter" contentStyleType="text/css" font-style="normal" height="1542" stroke-width="1" stroke-dashoffset="0" font-weight="normal" stroke-opacity="1">
  <!--Generated by the Batik Graphics2D SVG Generator-->
  <defs id="genericDefs" />
  <g>
    <defs id="defs1">
      <clipPath clipPathUnits="userSpaceOnUse" id="clipPath1">
        <path d="M9 9 L81 9 L81 41 L9 41 L9 9 Z" />
      </clipPath>
      <clipPath clipPathUnits="userSpaceOnUse" id="clipPath2">
        <path d="M9 9 L85 9 L85 41 L9 41 L9 9 Z" />
      </clipPath>
      <clipPath clipPathUnits="userSpaceOnUse" id="clipPath3">
        <path d="M39 39 L51 39 L51 1533 L39 1533 L39 39 Z" />
      </clipPath>
      <clipPath clipPathUnits="userSpaceOnUse" id="clipPath4">
        <path d="M809 9 L1100 9 L1100 84 L809 84 L809 9 Z" />
      </clipPath>
      <clipPath clipPathUnits="userSpaceOnUse" id="clipPath5">
        <path d="M809 9 L1104 9 L1104 84 L809 84 L809 9 Z" />
      </clipPath>
      <clipPath clipPathUnits="userSpaceOnUse" id="clipPath6">
        <path d="M948 82 L960 82 L960 1533 L948 1533 L948 82 Z" />
      </clipPath>
      <clipPath clipPathUnits="userSpaceOnUse" id="clipPath7">
        <path d="M943 106 L965 106 L965 148 L943 148 L943 106 Z" />
      </clipPath>
      <clipPath clipPathUnits="userSpaceOnUse" id="clipPath8">
        <path d="M964 106 L1018 106 L1018 133 L964 133 L964 106 Z" />
      </clipPath>
      <clipPath clipPathUnits="userSpaceOnUse" id="clipPath9">
        <path d="M943 332 L965 332 L965 374 L943 374 L943 332 Z" />
      </clipPath>
      <clipPath clipPathUnits="userSpaceOnUse" id="clipPath10">
        <path d="M964 332 L1018 332 L1018 359 L964 359 L964 332 Z" />
      </clipPath>
      <clipPath clipPathUnits="userSpaceOnUse" id="clipPath11">
        <path d="M943 452 L965 452 L965 494 L943 494 L943 452 Z" />
      </clipPath>
      <clipPath clipPathUnits="userSpaceOnUse" id="clipPath12">
        <path d="M964 452 L1018 452 L1018 479 L964 479 L964 452 Z" />
      </clipPath>
      <clipPath clipPathUnits="userSpaceOnUse" id="clipPath13">
        <path d="M943 272 L965 272 L965 314 L943 314 L943 272 Z" />
      </clipPath>
      <clipPath clipPathUnits="userSpaceOnUse" id="clipPath14">
        <path d="M964 272 L1006 272 L1006 299 L964 299 L964 272 Z" />
      </clipPath>
      <clipPath clipPathUnits="userSpaceOnUse" id="clipPath15">
        <path d="M943 392 L965 392 L965 434 L943 434 L943 392 Z" />
      </clipPath>
      <clipPath clipPathUnits="userSpaceOnUse" id="clipPath16">
        <path d="M964 392 L1006 392 L1006 419 L964 419 L964 392 Z" />
      </clipPath>
      <clipPath clipPathUnits="userSpaceOnUse" id="clipPath17">
        <path d="M1126 9 L1417 9 L1417 84 L1126 84 L1126 9 Z" />
      </clipPath>
      <clipPath clipPathUnits="userSpaceOnUse" id="clipPath18">
        <path d="M1126 9 L1422 9 L1422 84 L1126 84 L1126 9 Z" />
      </clipPath>
      <clipPath clipPathUnits="userSpaceOnUse" id="clipPath19">
        <path d="M1126 9 L1421 9 L1421 84 L1126 84 L1126 9 Z" />
      </clipPath>
      <clipPath clipPathUnits="userSpaceOnUse" id="clipPath20">
        <path d="M1265 82 L1277 82 L1277 1533 L1265 1533 L1265 82 Z" />
      </clipPath>
      <clipPath clipPathUnits="userSpaceOnUse" id="clipPath21">
        <path d="M1260 213 L1282 213 L1282 255 L1260 255 L1260 213 Z" />
      </clipPath>
      <clipPath clipPathUnits="userSpaceOnUse" id="clipPath22">
        <path d="M1281 213 L1335 213 L1335 240 L1281 240 L1281 213 Z" />
      </clipPath>
      <clipPath clipPathUnits="userSpaceOnUse" id="clipPath23">
        <path d="M1260 161 L1282 161 L1282 203 L1260 203 L1260 161 Z" />
      </clipPath>
      <clipPath clipPathUnits="userSpaceOnUse" id="clipPath24">
        <path d="M1281 161 L1323 161 L1323 188 L1281 188 L1281 161 Z" />
      </clipPath>
      <clipPath clipPathUnits="userSpaceOnUse" id="clipPath25">
        <path d="M1435 9 L1726 9 L1726 84 L1435 84 L1435 9 Z" />
      </clipPath>
      <clipPath clipPathUnits="userSpaceOnUse" id="clipPath26">
        <path d="M1435 9 L1730 9 L1730 84 L1435 84 L1435 9 Z" />
      </clipPath>
      <clipPath clipPathUnits="userSpaceOnUse" id="clipPath27">
        <path d="M1574 82 L1586 82 L1586 1533 L1574 1533 L1574 82 Z" />
      </clipPath>
      <clipPath clipPathUnits="userSpaceOnUse" id="clipPath28">
        <path d="M1569 632 L1591 632 L1591 674 L1569 674 L1569 632 Z" />
      </clipPath>
      <clipPath clipPathUnits="userSpaceOnUse" id="clipPath29">
        <path d="M1590 632 L1644 632 L1644 659 L1590 659 L1590 632 Z" />
      </clipPath>
      <clipPath clipPathUnits="userSpaceOnUse" id="clipPath30">
        <path d="M1569 872 L1591 872 L1591 914 L1569 914 L1569 872 Z" />
      </clipPath>
      <clipPath clipPathUnits="userSpaceOnUse" id="clipPath31">
        <path d="M1590 872 L1644 872 L1644 899 L1590 899 L1590 872 Z" />
      </clipPath>
      <clipPath clipPathUnits="userSpaceOnUse" id="clipPath32">
        <path d="M1569 992 L1591 992 L1591 1034 L1569 1034 L1569 992 Z" />
      </clipPath>
      <clipPath clipPathUnits="userSpaceOnUse" id="clipPath33">
        <path d="M1590 992 L1644 992 L1644 1019 L1590 1019 L1590 992 Z" />
      </clipPath>
      <clipPath clipPathUnits="userSpaceOnUse" id="clipPath34">
        <path d="M1569 528 L1591 528 L1591 554 L1569 554 L1569 528 Z" />
      </clipPath>
      <clipPath clipPathUnits="userSpaceOnUse" id="clipPath35">
        <path d="M1590 527 L1632 527 L1632 554 L1590 554 L1590 527 Z" />
      </clipPath>
      <clipPath clipPathUnits="userSpaceOnUse" id="clipPath36">
        <path d="M1569 692 L1591 692 L1591 734 L1569 734 L1569 692 Z" />
      </clipPath>
      <clipPath clipPathUnits="userSpaceOnUse" id="clipPath37">
        <path d="M1590 692 L1632 692 L1632 719 L1590 719 L1590 692 Z" />
      </clipPath>
      <clipPath clipPathUnits="userSpaceOnUse" id="clipPath38">
        <path d="M1569 932 L1591 932 L1591 974 L1569 974 L1569 932 Z" />
      </clipPath>
      <clipPath clipPathUnits="userSpaceOnUse" id="clipPath39">
        <path d="M1590 932 L1632 932 L1632 959 L1590 959 L1590 932 Z" />
      </clipPath>
      <clipPath clipPathUnits="userSpaceOnUse" id="clipPath40">
        <path d="M1749 9 L2040 9 L2040 84 L1749 84 L1749 9 Z" />
      </clipPath>
      <clipPath clipPathUnits="userSpaceOnUse" id="clipPath41">
        <path d="M1749 9 L2044 9 L2044 84 L1749 84 L1749 9 Z" />
      </clipPath>
      <clipPath clipPathUnits="userSpaceOnUse" id="clipPath42">
        <path d="M1888 82 L1900 82 L1900 1533 L1888 1533 L1888 82 Z" />
      </clipPath>
      <clipPath clipPathUnits="userSpaceOnUse" id="clipPath43">
        <path d="M1883 752 L1905 752 L1905 794 L1883 794 L1883 752 Z" />
      </clipPath>
      <clipPath clipPathUnits="userSpaceOnUse" id="clipPath44">
        <path d="M1904 752 L1958 752 L1958 779 L1904 779 L1904 752 Z" />
      </clipPath>
      <clipPath clipPathUnits="userSpaceOnUse" id="clipPath45">
        <path d="M1883 1232 L1905 1232 L1905 1274 L1883 1274 L1883 1232 Z" />
      </clipPath>
      <clipPath clipPathUnits="userSpaceOnUse" id="clipPath46">
        <path d="M1904 1232 L1958 1232 L1958 1259 L1904 1259 L1904 1232 Z" />
      </clipPath>
      <clipPath clipPathUnits="userSpaceOnUse" id="clipPath47">
        <path d="M1883 584 L1905 584 L1905 626 L1883 626 L1883 584 Z" />
      </clipPath>
      <clipPath clipPathUnits="userSpaceOnUse" id="clipPath48">
        <path d="M1904 584 L1946 584 L1946 611 L1904 611 L1904 584 Z" />
      </clipPath>
      <clipPath clipPathUnits="userSpaceOnUse" id="clipPath49">
        <path d="M1883 812 L1905 812 L1905 854 L1883 854 L1883 812 Z" />
      </clipPath>
      <clipPath clipPathUnits="userSpaceOnUse" id="clipPath50">
        <path d="M1904 812 L1946 812 L1946 839 L1904 839 L1904 812 Z" />
      </clipPath>
      <clipPath clipPathUnits="userSpaceOnUse" id="clipPath51">
        <path d="M1883 1306 L1905 1306 L1905 1348 L1883 1348 L1883 1306 Z" />
      </clipPath>
      <clipPath clipPathUnits="userSpaceOnUse" id="clipPath52">
        <path d="M1904 1306 L1946 1306 L1946 1333 L1904 1333 L1904 1306 Z" />
      </clipPath>
      <clipPath clipPathUnits="userSpaceOnUse" id="clipPath53">
        <path d="M2058 9 L2349 9 L2349 84 L2058 84 L2058 9 Z" />
      </clipPath>
      <clipPath clipPathUnits="userSpaceOnUse" id="clipPath54">
        <path d="M2058 9 L2353 9 L2353 84 L2058 84 L2058 9 Z" />
      </clipPath>
      <clipPath clipPathUnits="userSpaceOnUse" id="clipPath55">
        <path d="M2197 82 L2209 82 L2209 1533 L2197 1533 L2197 82 Z" />
      </clipPath>
      <clipPath clipPathUnits="userSpaceOnUse" id="clipPath56">
        <path d="M2192 1112 L2214 1112 L2214 1154 L2192 1154 L2192 1112 Z" />
      </clipPath>
      <clipPath clipPathUnits="userSpaceOnUse" id="clipPath57">
        <path d="M2213 1112 L2267 1112 L2267 1139 L2213 1139 L2213 1112 Z" />
      </clipPath>
      <clipPath clipPathUnits="userSpaceOnUse" id="clipPath58">
        <path d="M2192 1382 L2214 1382 L2214 1424 L2192 1424 L2192 1382 Z" />
      </clipPath>
      <clipPath clipPathUnits="userSpaceOnUse" id="clipPath59">
        <path d="M2213 1382 L2267 1382 L2267 1409 L2213 1409 L2213 1382 Z" />
      </clipPath>
      <clipPath clipPathUnits="userSpaceOnUse" id="clipPath60">
        <path d="M2192 1052 L2214 1052 L2214 1094 L2192 1094 L2192 1052 Z" />
      </clipPath>
      <clipPath clipPathUnits="userSpaceOnUse" id="clipPath61">
        <path d="M2213 1052 L2255 1052 L2255 1079 L2213 1079 L2213 1052 Z" />
      </clipPath>
      <clipPath clipPathUnits="userSpaceOnUse" id="clipPath62">
        <path d="M2192 1172 L2214 1172 L2214 1214 L2192 1214 L2192 1172 Z" />
      </clipPath>
      <clipPath clipPathUnits="userSpaceOnUse" id="clipPath63">
        <path d="M2213 1172 L2255 1172 L2255 1199 L2213 1199 L2213 1172 Z" />
      </clipPath>
      <clipPath clipPathUnits="userSpaceOnUse" id="clipPath64">
        <path d="M2192 1441 L2214 1441 L2214 1483 L2192 1483 L2192 1441 Z" />
      </clipPath>
      <clipPath clipPathUnits="userSpaceOnUse" id="clipPath65">
        <path d="M2213 1441 L2255 1441 L2255 1468 L2213 1468 L2213 1441 Z" />
      </clipPath>
      <clipPath clipPathUnits="userSpaceOnUse" id="clipPath66">
        <path d="M-1 -1 L2359 -1 L2359 1543 L-1 1543 L-1 -1 Z" />
      </clipPath>
      <clipPath clipPathUnits="userSpaceOnUse" id="clipPath67">
        <path d="M228 84 L765 84 L765 111 L228 111 L228 84 Z" />
      </clipPath>
      <clipPath clipPathUnits="userSpaceOnUse" id="clipPath68">
        <path d="M43 102 L55 102 L55 113 L43 113 L43 102 Z" />
      </clipPath>
      <clipPath clipPathUnits="userSpaceOnUse" id="clipPath69">
        <path d="M333 191 L977 191 L977 218 L333 218 L333 191 Z" />
      </clipPath>
      <clipPath clipPathUnits="userSpaceOnUse" id="clipPath70">
        <path d="M43 209 L55 209 L55 220 L43 220 L43 209 Z" />
      </clipPath>
      <clipPath clipPathUnits="userSpaceOnUse" id="clipPath71">
        <path d="M361 310 L631 310 L631 337 L361 337 L361 310 Z" />
      </clipPath>
      <clipPath clipPathUnits="userSpaceOnUse" id="clipPath72">
        <path d="M43 328 L55 328 L55 339 L43 339 L43 328 Z" />
      </clipPath>
      <clipPath clipPathUnits="userSpaceOnUse" id="clipPath73">
        <path d="M101 430 L891 430 L891 457 L101 457 L101 430 Z" />
      </clipPath>
      <clipPath clipPathUnits="userSpaceOnUse" id="clipPath74">
        <path d="M43 448 L55 448 L55 459 L43 459 L43 448 Z" />
      </clipPath>
      <clipPath clipPathUnits="userSpaceOnUse" id="clipPath75">
        <path d="M655 610 L963 610 L963 637 L655 637 L655 610 Z" />
      </clipPath>
      <clipPath clipPathUnits="userSpaceOnUse" id="clipPath76">
        <path d="M43 628 L55 628 L55 639 L43 639 L43 628 Z" />
      </clipPath>
      <clipPath clipPathUnits="userSpaceOnUse" id="clipPath77">
        <path d="M812 730 L1120 730 L1120 757 L812 757 L812 730 Z" />
      </clipPath>
      <clipPath clipPathUnits="userSpaceOnUse" id="clipPath78">
        <path d="M43 748 L55 748 L55 759 L43 759 L43 748 Z" />
      </clipPath>
      <clipPath clipPathUnits="userSpaceOnUse" id="clipPath79">
        <path d="M660 850 L958 850 L958 877 L660 877 L660 850 Z" />
      </clipPath>
      <clipPath clipPathUnits="userSpaceOnUse" id="clipPath80">
        <path d="M43 868 L55 868 L55 879 L43 879 L43 868 Z" />
      </clipPath>
      <clipPath clipPathUnits="userSpaceOnUse" id="clipPath81">
        <path d="M691 970 L927 970 L927 997 L691 997 L691 970 Z" />
      </clipPath>
      <clipPath clipPathUnits="userSpaceOnUse" id="clipPath82">
        <path d="M43 988 L55 988 L55 999 L43 999 L43 988 Z" />
      </clipPath>
      <clipPath clipPathUnits="userSpaceOnUse" id="clipPath83">
        <path d="M967 1090 L1275 1090 L1275 1117 L967 1117 L967 1090 Z" />
      </clipPath>
      <clipPath clipPathUnits="userSpaceOnUse" id="clipPath84">
        <path d="M43 1108 L55 1108 L55 1119 L43 1119 L43 1108 Z" />
      </clipPath>
      <clipPath clipPathUnits="userSpaceOnUse" id="clipPath85">
        <path d="M817 1210 L1115 1210 L1115 1237 L817 1237 L817 1210 Z" />
      </clipPath>
      <clipPath clipPathUnits="userSpaceOnUse" id="clipPath86">
        <path d="M43 1228 L55 1228 L55 1239 L43 1239 L43 1228 Z" />
      </clipPath>
      <clipPath clipPathUnits="userSpaceOnUse" id="clipPath87">
        <path d="M972 1360 L1270 1360 L1270 1387 L972 1387 L972 1360 Z" />
      </clipPath>
      <clipPath clipPathUnits="userSpaceOnUse" id="clipPath88">
        <path d="M43 1378 L55 1378 L55 1389 L43 1389 L43 1378 Z" />
      </clipPath>
      <clipPath clipPathUnits="userSpaceOnUse" id="clipPath89">
        <path d="M479 139 L831 139 L831 166 L479 166 L479 139 Z" />
      </clipPath>
      <clipPath clipPathUnits="userSpaceOnUse" id="clipPath90">
        <path d="M1252 157 L1264 157 L1264 168 L1252 168 L1252 157 Z" />
      </clipPath>
      <clipPath clipPathUnits="userSpaceOnUse" id="clipPath91">
        <path d="M258 250 L735 250 L735 277 L258 277 L258 250 Z" />
      </clipPath>
      <clipPath clipPathUnits="userSpaceOnUse" id="clipPath92">
        <path d="M935 268 L947 268 L947 279 L935 279 L935 268 Z" />
      </clipPath>
      <clipPath clipPathUnits="userSpaceOnUse" id="clipPath93">
        <path d="M342 370 L651 370 L651 397 L342 397 L342 370 Z" />
      </clipPath>
      <clipPath clipPathUnits="userSpaceOnUse" id="clipPath94">
        <path d="M935 388 L947 388 L947 399 L935 399 L935 388 Z" />
      </clipPath>
      <clipPath clipPathUnits="userSpaceOnUse" id="clipPath95">
        <path d="M469 506 L1149 506 L1149 533 L469 533 L469 506 Z" />
      </clipPath>
      <clipPath clipPathUnits="userSpaceOnUse" id="clipPath96">
        <path d="M1561 524 L1573 524 L1573 535 L1561 535 L1561 524 Z" />
      </clipPath>
      <clipPath clipPathUnits="userSpaceOnUse" id="clipPath97">
        <path d="M626 562 L1306 562 L1306 589 L626 589 L626 562 Z" />
      </clipPath>
      <clipPath clipPathUnits="userSpaceOnUse" id="clipPath98">
        <path d="M1875 580 L1887 580 L1887 591 L1875 591 L1875 580 Z" />
      </clipPath>
      <clipPath clipPathUnits="userSpaceOnUse" id="clipPath99">
        <path d="M651 670 L967 670 L967 697 L651 697 L651 670 Z" />
      </clipPath>
      <clipPath clipPathUnits="userSpaceOnUse" id="clipPath100">
        <path d="M1561 688 L1573 688 L1573 699 L1561 699 L1561 688 Z" />
      </clipPath>
      <clipPath clipPathUnits="userSpaceOnUse" id="clipPath101">
        <path d="M808 790 L1124 790 L1124 817 L808 817 L808 790 Z" />
      </clipPath>
      <clipPath clipPathUnits="userSpaceOnUse" id="clipPath102">
        <path d="M1875 808 L1887 808 L1887 819 L1875 819 L1875 808 Z" />
      </clipPath>
      <clipPath clipPathUnits="userSpaceOnUse" id="clipPath103">
        <path d="M651 910 L967 910 L967 937 L651 937 L651 910 Z" />
      </clipPath>
      <clipPath clipPathUnits="userSpaceOnUse" id="clipPath104">
        <path d="M1561 928 L1573 928 L1573 939 L1561 939 L1561 928 Z" />
      </clipPath>
      <clipPath clipPathUnits="userSpaceOnUse" id="clipPath105">
        <path d="M781 1030 L1461 1030 L1461 1057 L781 1057 L781 1030 Z" />
      </clipPath>
      <clipPath clipPathUnits="userSpaceOnUse" id="clipPath106">
        <path d="M2184 1048 L2196 1048 L2196 1059 L2184 1059 L2184 1048 Z" />
      </clipPath>
      <clipPath clipPathUnits="userSpaceOnUse" id="clipPath107">
        <path d="M963 1150 L1279 1150 L1279 1177 L963 1177 L963 1150 Z" />
      </clipPath>
      <clipPath clipPathUnits="userSpaceOnUse" id="clipPath108">
        <path d="M2184 1168 L2196 1168 L2196 1179 L2184 1179 L2184 1168 Z" />
      </clipPath>
      <clipPath clipPathUnits="userSpaceOnUse" id="clipPath109">
        <path d="M808 1284 L1124 1284 L1124 1311 L808 1311 L808 1284 Z" />
      </clipPath>
      <clipPath clipPathUnits="userSpaceOnUse" id="clipPath110">
        <path d="M1875 1302 L1887 1302 L1887 1313 L1875 1313 L1875 1302 Z" />
      </clipPath>
      <clipPath clipPathUnits="userSpaceOnUse" id="clipPath111">
        <path d="M963 1419 L1279 1419 L1279 1446 L963 1446 L963 1419 Z" />
      </clipPath>
      <clipPath clipPathUnits="userSpaceOnUse" id="clipPath112">
        <path d="M2184 1437 L2196 1437 L2196 1448 L2184 1448 L2184 1437 Z" />
      </clipPath>
    </defs>
    <g fill="rgb(238,201,142)" font-family="'Segoe UI'" stroke-linejoin="round" stroke="rgb(238,201,142)" stroke-width="0" stroke-miterlimit="0">
      <rect x="10" y="10" clip-path="url(#clipPath1)" width="70" height="30" stroke="none" />
    </g>
    <g stroke-width="0.1" font-family="'Segoe UI'" stroke-linecap="butt">
      <rect x="10" y="10" clip-path="url(#clipPath1)" fill="none" width="69" height="29" />
      <text x="16" font-size="19" y="33" clip-path="url(#clipPath2)" stroke="none" xml:space="preserve">System</text>
      <line clip-path="url(#clipPath3)" fill="none" x1="44" x2="44" y1="40" y2="1532" stroke-dasharray="10,10" stroke-width="1.1" />
    </g>
    <g stroke-linecap="butt" fill="rgb(255,245,181)" font-family="'Segoe UI'" stroke-dasharray="10,10" stroke="rgb(255,245,181)" stroke-width="1.1">
      <rect x="810" y="10" clip-path="url(#clipPath4)" width="289" height="73" stroke="none" />
    </g>
    <g stroke-width="0.1" font-family="'Segoe UI'" stroke-linecap="butt">
      <rect x="810" y="10" clip-path="url(#clipPath4)" fill="none" width="288" height="72" />
      <text x="923" font-size="19" y="42" clip-path="url(#clipPath5)" stroke="none" xml:space="preserve">Camille</text>
      <text x="856" font-size="19" y="67" clip-path="url(#clipPath5)" stroke="none" xml:space="preserve">: actCentralCoordinator</text>
      <line clip-path="url(#clipPath6)" fill="none" x1="953" x2="953" y1="83" y2="1532" stroke-dasharray="10,10" stroke-width="1.1" />
    </g>
    <g stroke-linecap="butt" fill="rgb(39,76,114)" font-family="'Segoe UI'" stroke-dasharray="10,10" stroke="rgb(39,76,114)" stroke-width="1.1">
      <rect x="944" y="107" clip-path="url(#clipPath7)" width="20" height="40" stroke="none" />
      <rect x="944" y="107" clip-path="url(#clipPath7)" fill="none" width="19" stroke-dasharray="none" height="39" stroke-width="0.1" />
    </g>
    <g stroke-width="0.1" font-size="19" font-family="'Segoe UI'" stroke-linecap="butt">
      <text xml:space="preserve" x="965" y="128" clip-path="url(#clipPath8)" stroke="none">out01</text>
      <rect x="944" y="333" clip-path="url(#clipPath9)" fill="rgb(39,76,114)" width="20" height="40" stroke="none" />
      <rect x="944" y="333" clip-path="url(#clipPath9)" fill="none" width="19" height="39" stroke="rgb(39,76,114)" />
      <text xml:space="preserve" x="965" y="354" clip-path="url(#clipPath10)" stroke="none">out03</text>
      <rect x="944" y="453" clip-path="url(#clipPath11)" fill="rgb(39,76,114)" width="20" height="40" stroke="none" />
      <rect x="944" y="453" clip-path="url(#clipPath11)" fill="none" width="19" height="39" stroke="rgb(39,76,114)" />
      <text xml:space="preserve" x="965" y="474" clip-path="url(#clipPath12)" stroke="none">out04</text>
      <rect x="944" y="273" clip-path="url(#clipPath13)" fill="rgb(194,239,255)" width="20" height="40" stroke="none" />
      <rect x="944" y="273" clip-path="url(#clipPath13)" fill="none" width="19" height="39" stroke="rgb(194,239,255)" />
      <text xml:space="preserve" x="965" y="294" clip-path="url(#clipPath14)" stroke="none">in02</text>
      <rect x="944" y="393" clip-path="url(#clipPath15)" fill="rgb(194,239,255)" width="20" height="40" stroke="none" />
      <rect x="944" y="393" clip-path="url(#clipPath15)" fill="none" width="19" height="39" stroke="rgb(194,239,255)" />
      <text xml:space="preserve" x="965" y="414" clip-path="url(#clipPath16)" stroke="none">in03</text>
      <rect x="1127" y="10" clip-path="url(#clipPath17)" fill="rgb(255,245,181)" width="289" height="73" stroke="none" />
      <rect x="1127" y="10" clip-path="url(#clipPath17)" fill="none" width="288" height="72" />
      <text xml:space="preserve" x="1239" y="42" clip-path="url(#clipPath18)" stroke="none">Orange</text>
      <text xml:space="preserve" x="1147" y="67" clip-path="url(#clipPath19)" stroke="none">: actCommunicationCompany</text>
      <line clip-path="url(#clipPath20)" fill="none" x1="1270" x2="1270" y1="83" y2="1532" stroke-dasharray="10,10" stroke-width="1.1" />
    </g>
    <g stroke-linecap="butt" fill="rgb(39,76,114)" font-family="'Segoe UI'" stroke-dasharray="10,10" stroke="rgb(39,76,114)" stroke-width="1.1">
      <rect x="1261" y="214" clip-path="url(#clipPath21)" width="20" height="40" stroke="none" />
      <rect x="1261" y="214" clip-path="url(#clipPath21)" fill="none" width="19" stroke-dasharray="none" height="39" stroke-width="0.1" />
    </g>
    <g stroke-width="0.1" font-size="19" font-family="'Segoe UI'" stroke-linecap="butt">
      <text xml:space="preserve" x="1282" y="235" clip-path="url(#clipPath22)" stroke="none">out02</text>
      <rect x="1261" y="162" clip-path="url(#clipPath23)" fill="rgb(194,239,255)" width="20" height="40" stroke="none" />
      <rect x="1261" y="162" clip-path="url(#clipPath23)" fill="none" width="19" height="39" stroke="rgb(194,239,255)" />
      <text xml:space="preserve" x="1282" y="183" clip-path="url(#clipPath24)" stroke="none">in01</text>
      <rect x="1436" y="10" clip-path="url(#clipPath25)" fill="rgb(255,245,181)" width="289" height="73" stroke="none" />
      <rect x="1436" y="10" clip-path="url(#clipPath25)" fill="none" width="288" height="72" />
      <text xml:space="preserve" x="1557" y="42" clip-path="url(#clipPath26)" stroke="none">Fabio</text>
      <text xml:space="preserve" x="1478" y="67" clip-path="url(#clipPath26)" stroke="none">: actFiremenCoordinator</text>
      <line clip-path="url(#clipPath27)" fill="none" x1="1579" x2="1579" y1="83" y2="1532" stroke-dasharray="10,10" stroke-width="1.1" />
    </g>
    <g stroke-linecap="butt" fill="rgb(39,76,114)" font-family="'Segoe UI'" stroke-dasharray="10,10" stroke="rgb(39,76,114)" stroke-width="1.1">
      <rect x="1570" y="633" clip-path="url(#clipPath28)" width="20" height="40" stroke="none" />
      <rect x="1570" y="633" clip-path="url(#clipPath28)" fill="none" width="19" stroke-dasharray="none" height="39" stroke-width="0.1" />
    </g>
    <g stroke-width="0.1" font-size="19" font-family="'Segoe UI'" stroke-linecap="butt">
      <text xml:space="preserve" x="1591" y="654" clip-path="url(#clipPath29)" stroke="none">out05</text>
      <rect x="1570" y="873" clip-path="url(#clipPath30)" fill="rgb(39,76,114)" width="20" height="40" stroke="none" />
      <rect x="1570" y="873" clip-path="url(#clipPath30)" fill="none" width="19" height="39" stroke="rgb(39,76,114)" />
      <text xml:space="preserve" x="1591" y="894" clip-path="url(#clipPath31)" stroke="none">out07</text>
      <rect x="1570" y="993" clip-path="url(#clipPath32)" fill="rgb(39,76,114)" width="20" height="40" stroke="none" />
      <rect x="1570" y="993" clip-path="url(#clipPath32)" fill="none" width="19" height="39" stroke="rgb(39,76,114)" />
      <text xml:space="preserve" x="1591" y="1014" clip-path="url(#clipPath33)" stroke="none">out08</text>
      <rect x="1570" y="529" clip-path="url(#clipPath34)" fill="rgb(194,239,255)" width="20" height="24" stroke="none" />
      <rect x="1570" y="529" clip-path="url(#clipPath34)" fill="none" width="19" height="23" stroke="rgb(194,239,255)" />
      <text xml:space="preserve" x="1591" y="549" clip-path="url(#clipPath35)" stroke="none">in04</text>
      <rect x="1570" y="693" clip-path="url(#clipPath36)" fill="rgb(194,239,255)" width="20" height="40" stroke="none" />
      <rect x="1570" y="693" clip-path="url(#clipPath36)" fill="none" width="19" height="39" stroke="rgb(194,239,255)" />
      <text xml:space="preserve" x="1591" y="714" clip-path="url(#clipPath37)" stroke="none">in06</text>
      <rect x="1570" y="933" clip-path="url(#clipPath38)" fill="rgb(194,239,255)" width="20" height="40" stroke="none" />
      <rect x="1570" y="933" clip-path="url(#clipPath38)" fill="none" width="19" height="39" stroke="rgb(194,239,255)" />
      <text xml:space="preserve" x="1591" y="954" clip-path="url(#clipPath39)" stroke="none">in08</text>
      <rect x="1750" y="10" clip-path="url(#clipPath40)" fill="rgb(255,245,181)" width="289" height="73" stroke="none" />
      <rect x="1750" y="10" clip-path="url(#clipPath40)" fill="none" width="288" height="72" />
      <text xml:space="preserve" x="1880" y="42" clip-path="url(#clipPath41)" stroke="none">Ted</text>
      <text xml:space="preserve" x="1780" y="67" clip-path="url(#clipPath41)" stroke="none">: actTowServiceCoordinator</text>
      <line clip-path="url(#clipPath42)" fill="none" x1="1893" x2="1893" y1="83" y2="1532" stroke-dasharray="10,10" stroke-width="1.1" />
    </g>
    <g stroke-linecap="butt" fill="rgb(39,76,114)" font-family="'Segoe UI'" stroke-dasharray="10,10" stroke="rgb(39,76,114)" stroke-width="1.1">
      <rect x="1884" y="753" clip-path="url(#clipPath43)" width="20" height="40" stroke="none" />
      <rect x="1884" y="753" clip-path="url(#clipPath43)" fill="none" width="19" stroke-dasharray="none" height="39" stroke-width="0.1" />
    </g>
    <g stroke-width="0.1" font-size="19" font-family="'Segoe UI'" stroke-linecap="butt">
      <text xml:space="preserve" x="1905" y="774" clip-path="url(#clipPath44)" stroke="none">out06</text>
      <rect x="1884" y="1233" clip-path="url(#clipPath45)" fill="rgb(39,76,114)" width="20" height="40" stroke="none" />
      <rect x="1884" y="1233" clip-path="url(#clipPath45)" fill="none" width="19" height="39" stroke="rgb(39,76,114)" />
      <text xml:space="preserve" x="1905" y="1254" clip-path="url(#clipPath46)" stroke="none">out10</text>
      <rect x="1884" y="585" clip-path="url(#clipPath47)" fill="rgb(194,239,255)" width="20" height="40" stroke="none" />
      <rect x="1884" y="585" clip-path="url(#clipPath47)" fill="none" width="19" height="39" stroke="rgb(194,239,255)" />
      <text xml:space="preserve" x="1905" y="606" clip-path="url(#clipPath48)" stroke="none">in05</text>
      <rect x="1884" y="813" clip-path="url(#clipPath49)" fill="rgb(194,239,255)" width="20" height="40" stroke="none" />
      <rect x="1884" y="813" clip-path="url(#clipPath49)" fill="none" width="19" height="39" stroke="rgb(194,239,255)" />
      <text xml:space="preserve" x="1905" y="834" clip-path="url(#clipPath50)" stroke="none">in07</text>
      <rect x="1884" y="1307" clip-path="url(#clipPath51)" fill="rgb(194,239,255)" width="20" height="40" stroke="none" />
      <rect x="1884" y="1307" clip-path="url(#clipPath51)" fill="none" width="19" height="39" stroke="rgb(194,239,255)" />
      <text xml:space="preserve" x="1905" y="1328" clip-path="url(#clipPath52)" stroke="none">in11</text>
      <rect x="2059" y="10" clip-path="url(#clipPath53)" fill="rgb(255,245,181)" width="289" height="73" stroke="none" />
      <rect x="2059" y="10" clip-path="url(#clipPath53)" fill="none" width="288" height="72" />
      <text xml:space="preserve" x="2184" y="42" clip-path="url(#clipPath54)" stroke="none">Polo</text>
      <text xml:space="preserve" x="2110" y="67" clip-path="url(#clipPath54)" stroke="none">: actPoliceCoordinator</text>
      <line clip-path="url(#clipPath55)" fill="none" x1="2202" x2="2202" y1="83" y2="1532" stroke-dasharray="10,10" stroke-width="1.1" />
    </g>
    <g stroke-linecap="butt" fill="rgb(39,76,114)" font-family="'Segoe UI'" stroke-dasharray="10,10" stroke="rgb(39,76,114)" stroke-width="1.1">
      <rect x="2193" y="1113" clip-path="url(#clipPath56)" width="20" height="40" stroke="none" />
      <rect x="2193" y="1113" clip-path="url(#clipPath56)" fill="none" width="19" stroke-dasharray="none" height="39" stroke-width="0.1" />
    </g>
    <g stroke-width="0.1" font-size="19" font-family="'Segoe UI'" stroke-linecap="butt">
      <text xml:space="preserve" x="2214" y="1134" clip-path="url(#clipPath57)" stroke="none">out09</text>
      <rect x="2193" y="1383" clip-path="url(#clipPath58)" fill="rgb(39,76,114)" width="20" height="40" stroke="none" />
      <rect x="2193" y="1383" clip-path="url(#clipPath58)" fill="none" width="19" height="39" stroke="rgb(39,76,114)" />
      <text xml:space="preserve" x="2214" y="1404" clip-path="url(#clipPath59)" stroke="none">out11</text>
      <rect x="2193" y="1053" clip-path="url(#clipPath60)" fill="rgb(194,239,255)" width="20" height="40" stroke="none" />
      <rect x="2193" y="1053" clip-path="url(#clipPath60)" fill="none" width="19" height="39" stroke="rgb(194,239,255)" />
      <text xml:space="preserve" x="2214" y="1074" clip-path="url(#clipPath61)" stroke="none">in09</text>
      <rect x="2193" y="1173" clip-path="url(#clipPath62)" fill="rgb(194,239,255)" width="20" height="40" stroke="none" />
      <rect x="2193" y="1173" clip-path="url(#clipPath62)" fill="none" width="19" height="39" stroke="rgb(194,239,255)" />
      <text xml:space="preserve" x="2214" y="1194" clip-path="url(#clipPath63)" stroke="none">in10</text>
      <rect x="2193" y="1442" clip-path="url(#clipPath64)" fill="rgb(194,239,255)" width="20" height="40" stroke="none" />
      <rect x="2193" y="1442" clip-path="url(#clipPath64)" fill="none" width="19" height="39" stroke="rgb(194,239,255)" />
      <text xml:space="preserve" x="2214" y="1463" clip-path="url(#clipPath65)" stroke="none">in12</text>
      <line clip-path="url(#clipPath66)" fill="none" x1="944" x2="45" y1="107" y2="107" stroke="rgb(136,136,136)" stroke-width="2.1" />
      <text x="229" y="106" clip-path="url(#clipPath67)" stroke="none" stroke-width="2.1" xml:space="preserve">oeRequestCrisisEventLocation("AdtPhoneNumber=691123456")</text>
      <line clip-path="url(#clipPath68)" fill="none" x1="52" x2="45" y1="104" y2="107" stroke="rgb(136,136,136)" stroke-width="2.1" />
      <line clip-path="url(#clipPath68)" fill="none" x1="45" x2="52" y1="107" y2="110" stroke="rgb(136,136,136)" stroke-width="2.1" />
      <line clip-path="url(#clipPath66)" fill="none" x1="1261" x2="45" y1="214" y2="214" stroke="rgb(136,136,136)" stroke-width="2.1" />
      <text x="334" y="213" clip-path="url(#clipPath69)" stroke="none" stroke-width="2.1" xml:space="preserve">oeReceiveCrisisEventLocation("AdtMapWithPin=http://..., X=75.08, Y=23.03")</text>
      <line clip-path="url(#clipPath70)" fill="none" x1="52" x2="45" y1="211" y2="214" stroke="rgb(136,136,136)" stroke-width="2.1" />
      <line clip-path="url(#clipPath70)" fill="none" x1="45" x2="52" y1="214" y2="217" stroke="rgb(136,136,136)" stroke-width="2.1" />
      <line clip-path="url(#clipPath66)" fill="none" x1="944" x2="45" y1="333" y2="333" stroke="rgb(136,136,136)" stroke-width="2.1" />
      <text x="362" y="332" clip-path="url(#clipPath71)" stroke="none" stroke-width="2.1" xml:space="preserve">oeConfirmCrisisEventLocation()</text>
      <line clip-path="url(#clipPath72)" fill="none" x1="52" x2="45" y1="330" y2="333" stroke="rgb(136,136,136)" stroke-width="2.1" />
      <line clip-path="url(#clipPath72)" fill="none" x1="45" x2="52" y1="333" y2="336" stroke="rgb(136,136,136)" stroke-width="2.1" />
      <line clip-path="url(#clipPath66)" fill="none" x1="944" x2="45" y1="453" y2="453" stroke="rgb(136,136,136)" stroke-width="2.1" />
      <text x="103" y="452" clip-path="url(#clipPath73)" stroke="none" stroke-width="2.1" xml:space="preserve">oeCreateNewCrisisEvent("AdtCrisisID=1","AdtName=Walter","AenHumanType=Witness","Ad...</text>
      <line clip-path="url(#clipPath74)" fill="none" x1="52" x2="45" y1="450" y2="453" stroke="rgb(136,136,136)" stroke-width="2.1" />
      <line clip-path="url(#clipPath74)" fill="none" x1="45" x2="52" y1="453" y2="456" stroke="rgb(136,136,136)" stroke-width="2.1" />
      <line clip-path="url(#clipPath66)" fill="none" x1="1570" x2="45" y1="633" y2="633" stroke="rgb(136,136,136)" stroke-width="2.1" />
      <text x="656" y="632" clip-path="url(#clipPath75)" stroke="none" stroke-width="2.1" xml:space="preserve">oeUpdateDispatchStatus("InTransit")</text>
      <line clip-path="url(#clipPath76)" fill="none" x1="52" x2="45" y1="630" y2="633" stroke="rgb(136,136,136)" stroke-width="2.1" />
      <line clip-path="url(#clipPath76)" fill="none" x1="45" x2="52" y1="633" y2="636" stroke="rgb(136,136,136)" stroke-width="2.1" />
      <line clip-path="url(#clipPath66)" fill="none" x1="1884" x2="45" y1="753" y2="753" stroke="rgb(136,136,136)" stroke-width="2.1" />
      <text x="813" y="752" clip-path="url(#clipPath77)" stroke="none" stroke-width="2.1" xml:space="preserve">oeUpdateDispatchStatus("InTransit")</text>
      <line clip-path="url(#clipPath78)" fill="none" x1="52" x2="45" y1="750" y2="753" stroke="rgb(136,136,136)" stroke-width="2.1" />
      <line clip-path="url(#clipPath78)" fill="none" x1="45" x2="52" y1="753" y2="756" stroke="rgb(136,136,136)" stroke-width="2.1" />
      <line clip-path="url(#clipPath66)" fill="none" x1="1570" x2="45" y1="873" y2="873" stroke="rgb(136,136,136)" stroke-width="2.1" />
      <text x="661" y="872" clip-path="url(#clipPath79)" stroke="none" stroke-width="2.1" xml:space="preserve">oeUpdateDispatchStatus("Arrived")</text>
      <line clip-path="url(#clipPath80)" fill="none" x1="52" x2="45" y1="870" y2="873" stroke="rgb(136,136,136)" stroke-width="2.1" />
      <line clip-path="url(#clipPath80)" fill="none" x1="45" x2="52" y1="873" y2="876" stroke="rgb(136,136,136)" stroke-width="2.1" />
      <line clip-path="url(#clipPath66)" fill="none" x1="1570" x2="45" y1="993" y2="993" stroke="rgb(136,136,136)" stroke-width="2.1" />
      <text x="692" y="992" clip-path="url(#clipPath81)" stroke="none" stroke-width="2.1" xml:space="preserve">oeRequestHelp("Police","1")</text>
      <line clip-path="url(#clipPath82)" fill="none" x1="52" x2="45" y1="990" y2="993" stroke="rgb(136,136,136)" stroke-width="2.1" />
      <line clip-path="url(#clipPath82)" fill="none" x1="45" x2="52" y1="993" y2="996" stroke="rgb(136,136,136)" stroke-width="2.1" />
      <line clip-path="url(#clipPath66)" fill="none" x1="2193" x2="45" y1="1113" y2="1113" stroke="rgb(136,136,136)" stroke-width="2.1" />
      <text x="968" y="1112" clip-path="url(#clipPath83)" stroke="none" stroke-width="2.1" xml:space="preserve">oeUpdateDispatchStatus("InTransit")</text>
      <line clip-path="url(#clipPath84)" fill="none" x1="52" x2="45" y1="1110" y2="1113" stroke="rgb(136,136,136)" stroke-width="2.1" />
      <line clip-path="url(#clipPath84)" fill="none" x1="45" x2="52" y1="1113" y2="1116" stroke="rgb(136,136,136)" stroke-width="2.1" />
      <line clip-path="url(#clipPath66)" fill="none" x1="1884" x2="45" y1="1233" y2="1233" stroke="rgb(136,136,136)" stroke-width="2.1" />
      <text x="818" y="1232" clip-path="url(#clipPath85)" stroke="none" stroke-width="2.1" xml:space="preserve">oeUpdateDispatchStatus("Arrived")</text>
      <line clip-path="url(#clipPath86)" fill="none" x1="52" x2="45" y1="1230" y2="1233" stroke="rgb(136,136,136)" stroke-width="2.1" />
      <line clip-path="url(#clipPath86)" fill="none" x1="45" x2="52" y1="1233" y2="1236" stroke="rgb(136,136,136)" stroke-width="2.1" />
      <line clip-path="url(#clipPath66)" fill="none" x1="2193" x2="45" y1="1383" y2="1383" stroke="rgb(136,136,136)" stroke-width="2.1" />
      <text x="973" y="1382" clip-path="url(#clipPath87)" stroke="none" stroke-width="2.1" xml:space="preserve">oeUpdateDispatchStatus("Arrived")</text>
      <line clip-path="url(#clipPath88)" fill="none" x1="52" x2="45" y1="1380" y2="1383" stroke="rgb(136,136,136)" stroke-width="2.1" />
      <line clip-path="url(#clipPath88)" fill="none" x1="45" x2="52" y1="1383" y2="1386" stroke="rgb(136,136,136)" stroke-width="2.1" />
    </g>
    <g stroke-linecap="butt" font-size="19" fill="rgb(136,136,136)" font-family="'Segoe UI'" stroke-dasharray="5,5" stroke="rgb(136,136,136)" stroke-width="2.1">
      <line clip-path="url(#clipPath66)" fill="none" x1="1261" x2="45" y1="162" y2="162" />
      <text x="480" y="161" clip-path="url(#clipPath89)" fill="black" stroke="none" xml:space="preserve">ieRequestCrisisEventLocation(691123456)</text>
      <line clip-path="url(#clipPath90)" fill="none" x1="1254" x2="1261" y1="165" y2="162" stroke-dasharray="none" />
      <line clip-path="url(#clipPath90)" fill="none" x1="1261" x2="1254" y1="162" y2="159" stroke-dasharray="none" />
      <line clip-path="url(#clipPath66)" fill="none" x1="944" x2="45" y1="273" y2="273" />
      <text x="259" y="272" clip-path="url(#clipPath91)" fill="black" stroke="none" xml:space="preserve">ieReceiveCrisisEventLocation(http://..., X=75.08, Y=23.03)</text>
      <line clip-path="url(#clipPath92)" fill="none" x1="937" x2="944" y1="276" y2="273" stroke-dasharray="none" />
      <line clip-path="url(#clipPath92)" fill="none" x1="944" x2="937" y1="273" y2="270" stroke-dasharray="none" />
      <line clip-path="url(#clipPath66)" fill="none" x1="944" x2="45" y1="393" y2="393" />
      <text x="343" y="392" clip-path="url(#clipPath93)" fill="black" stroke="none" xml:space="preserve">ieConfirmCrisisEventLocation(Done)</text>
      <line clip-path="url(#clipPath94)" fill="none" x1="937" x2="944" y1="396" y2="393" stroke-dasharray="none" />
      <line clip-path="url(#clipPath94)" fill="none" x1="944" x2="937" y1="393" y2="390" stroke-dasharray="none" />
      <line clip-path="url(#clipPath66)" fill="none" x1="1570" x2="45" y1="529" y2="529" />
      <text x="470" y="528" clip-path="url(#clipPath95)" fill="black" stroke="none" xml:space="preserve">ieReceiveNewCrisisEvent(1,Walter,Witness,691123456,http://..., X=75.08, Y=23.03)</text>
      <line clip-path="url(#clipPath96)" fill="none" x1="1563" x2="1570" y1="532" y2="529" stroke-dasharray="none" />
      <line clip-path="url(#clipPath96)" fill="none" x1="1570" x2="1563" y1="529" y2="526" stroke-dasharray="none" />
      <line clip-path="url(#clipPath66)" fill="none" x1="1884" x2="45" y1="585" y2="585" />
      <text x="627" y="584" clip-path="url(#clipPath97)" fill="black" stroke="none" xml:space="preserve">ieReceiveNewCrisisEvent(1,Walter,Witness,691123456,http://..., X=75.08, Y=23.03)</text>
      <line clip-path="url(#clipPath98)" fill="none" x1="1877" x2="1884" y1="588" y2="585" stroke-dasharray="none" />
      <line clip-path="url(#clipPath98)" fill="none" x1="1884" x2="1877" y1="585" y2="582" stroke-dasharray="none" />
      <line clip-path="url(#clipPath66)" fill="none" x1="1570" x2="45" y1="693" y2="693" />
      <text x="652" y="692" clip-path="url(#clipPath99)" fill="black" stroke="none" xml:space="preserve">ieMessage(Dispatch Status Updated.)</text>
      <line clip-path="url(#clipPath100)" fill="none" x1="1563" x2="1570" y1="696" y2="693" stroke-dasharray="none" />
      <line clip-path="url(#clipPath100)" fill="none" x1="1570" x2="1563" y1="693" y2="690" stroke-dasharray="none" />
      <line clip-path="url(#clipPath66)" fill="none" x1="1884" x2="45" y1="813" y2="813" />
      <text x="809" y="812" clip-path="url(#clipPath101)" fill="black" stroke="none" xml:space="preserve">ieMessage(Dispatch Status Updated.)</text>
      <line clip-path="url(#clipPath102)" fill="none" x1="1877" x2="1884" y1="816" y2="813" stroke-dasharray="none" />
      <line clip-path="url(#clipPath102)" fill="none" x1="1884" x2="1877" y1="813" y2="810" stroke-dasharray="none" />
      <line clip-path="url(#clipPath66)" fill="none" x1="1570" x2="45" y1="933" y2="933" />
      <text x="652" y="932" clip-path="url(#clipPath103)" fill="black" stroke="none" xml:space="preserve">ieMessage(Dispatch Status Updated.)</text>
      <line clip-path="url(#clipPath104)" fill="none" x1="1563" x2="1570" y1="936" y2="933" stroke-dasharray="none" />
      <line clip-path="url(#clipPath104)" fill="none" x1="1570" x2="1563" y1="933" y2="930" stroke-dasharray="none" />
      <line clip-path="url(#clipPath66)" fill="none" x1="2193" x2="45" y1="1053" y2="1053" />
      <text x="782" y="1052" clip-path="url(#clipPath105)" fill="black" stroke="none" xml:space="preserve">ieReceiveNewCrisisEvent(1,Walter,Witness,691123456,http://..., X=75.08, Y=23.03)</text>
      <line clip-path="url(#clipPath106)" fill="none" x1="2186" x2="2193" y1="1056" y2="1053" stroke-dasharray="none" />
      <line clip-path="url(#clipPath106)" fill="none" x1="2193" x2="2186" y1="1053" y2="1050" stroke-dasharray="none" />
      <line clip-path="url(#clipPath66)" fill="none" x1="2193" x2="45" y1="1173" y2="1173" />
      <text x="964" y="1172" clip-path="url(#clipPath107)" fill="black" stroke="none" xml:space="preserve">ieMessage(Dispatch Status Updated.)</text>
      <line clip-path="url(#clipPath108)" fill="none" x1="2186" x2="2193" y1="1176" y2="1173" stroke-dasharray="none" />
      <line clip-path="url(#clipPath108)" fill="none" x1="2193" x2="2186" y1="1173" y2="1170" stroke-dasharray="none" />
      <line clip-path="url(#clipPath66)" fill="none" x1="1884" x2="45" y1="1307" y2="1307" />
      <text x="809" y="1306" clip-path="url(#clipPath109)" fill="black" stroke="none" xml:space="preserve">ieMessage(Dispatch Status Updated.)</text>
      <line clip-path="url(#clipPath110)" fill="none" x1="1877" x2="1884" y1="1310" y2="1307" stroke-dasharray="none" />
      <line clip-path="url(#clipPath110)" fill="none" x1="1884" x2="1877" y1="1307" y2="1304" stroke-dasharray="none" />
      <line clip-path="url(#clipPath66)" fill="none" x1="2193" x2="45" y1="1442" y2="1442" />
      <text x="964" y="1441" clip-path="url(#clipPath111)" fill="black" stroke="none" xml:space="preserve">ieMessage(Dispatch Status Updated.)</text>
      <line clip-path="url(#clipPath112)" fill="none" x1="2186" x2="2193" y1="1445" y2="1442" stroke-dasharray="none" />
      <line clip-path="url(#clipPath112)" fill="none" x1="2193" x2="2186" y1="1442" y2="1439" stroke-dasharray="none" />
    </g>
  </g>
</svg>

