<?xml version="1.0" encoding="UTF-8"?>
<svg xmlns="http://www.w3.org/2000/svg" xmlns:xlink="http://www.w3.org/1999/xlink" stroke-dasharray="none" shape-rendering="auto" font-family="'Dialog'" width="1191" text-rendering="auto" fill-opacity="1" contentScriptType="text/ecmascript" color-interpolation="auto" color-rendering="auto" preserveAspectRatio="xMidYMid meet" font-size="12" viewBox="0 0 1191 1030" fill="black" stroke="black" image-rendering="auto" stroke-miterlimit="10" zoomAndPan="magnify" version="1.0" stroke-linecap="square" stroke-linejoin="miter" contentStyleType="text/css" font-style="normal" height="1030" stroke-width="1" stroke-dashoffset="0" font-weight="normal" stroke-opacity="1">
  <!--Generated by the Batik Graphics2D SVG Generator-->
  <defs id="genericDefs" />
  <g>
    <defs id="defs1">
      <clipPath clipPathUnits="userSpaceOnUse" id="clipPath1">
        <path d="M210 9 L282 9 L282 41 L210 41 L210 9 Z" />
      </clipPath>
      <clipPath clipPathUnits="userSpaceOnUse" id="clipPath2">
        <path d="M210 9 L286 9 L286 41 L210 41 L210 9 Z" />
      </clipPath>
      <clipPath clipPathUnits="userSpaceOnUse" id="clipPath3">
        <path d="M240 39 L252 39 L252 1021 L240 1021 L240 39 Z" />
      </clipPath>
      <clipPath clipPathUnits="userSpaceOnUse" id="clipPath4">
        <path d="M310 9 L462 9 L462 61 L310 61 L310 9 Z" />
      </clipPath>
      <clipPath clipPathUnits="userSpaceOnUse" id="clipPath5">
        <path d="M310 9 L465 9 L465 61 L310 61 L310 9 Z" />
      </clipPath>
      <clipPath clipPathUnits="userSpaceOnUse" id="clipPath6">
        <path d="M310 9 L463 9 L463 61 L310 61 L310 9 Z" />
      </clipPath>
      <clipPath clipPathUnits="userSpaceOnUse" id="clipPath7">
        <path d="M380 59 L392 59 L392 1021 L380 1021 L380 59 Z" />
      </clipPath>
      <clipPath clipPathUnits="userSpaceOnUse" id="clipPath8">
        <path d="M375 89 L397 89 L397 131 L375 131 L375 89 Z" />
      </clipPath>
      <clipPath clipPathUnits="userSpaceOnUse" id="clipPath9">
        <path d="M396 89 L450 89 L450 116 L396 116 L396 89 Z" />
      </clipPath>
      <clipPath clipPathUnits="userSpaceOnUse" id="clipPath10">
        <path d="M375 329 L397 329 L397 371 L375 371 L375 329 Z" />
      </clipPath>
      <clipPath clipPathUnits="userSpaceOnUse" id="clipPath11">
        <path d="M396 329 L450 329 L450 356 L396 356 L396 329 Z" />
      </clipPath>
      <clipPath clipPathUnits="userSpaceOnUse" id="clipPath12">
        <path d="M375 269 L397 269 L397 311 L375 311 L375 269 Z" />
      </clipPath>
      <clipPath clipPathUnits="userSpaceOnUse" id="clipPath13">
        <path d="M396 269 L438 269 L438 296 L396 296 L396 269 Z" />
      </clipPath>
      <clipPath clipPathUnits="userSpaceOnUse" id="clipPath14">
        <path d="M490 9 L642 9 L642 61 L490 61 L490 9 Z" />
      </clipPath>
      <clipPath clipPathUnits="userSpaceOnUse" id="clipPath15">
        <path d="M490 9 L645 9 L645 61 L490 61 L490 9 Z" />
      </clipPath>
      <clipPath clipPathUnits="userSpaceOnUse" id="clipPath16">
        <path d="M490 9 L643 9 L643 61 L490 61 L490 9 Z" />
      </clipPath>
      <clipPath clipPathUnits="userSpaceOnUse" id="clipPath17">
        <path d="M560 59 L572 59 L572 1021 L560 1021 L560 59 Z" />
      </clipPath>
      <clipPath clipPathUnits="userSpaceOnUse" id="clipPath18">
        <path d="M555 209 L577 209 L577 251 L555 251 L555 209 Z" />
      </clipPath>
      <clipPath clipPathUnits="userSpaceOnUse" id="clipPath19">
        <path d="M576 209 L630 209 L630 236 L576 236 L576 209 Z" />
      </clipPath>
      <clipPath clipPathUnits="userSpaceOnUse" id="clipPath20">
        <path d="M555 149 L577 149 L577 191 L555 191 L555 149 Z" />
      </clipPath>
      <clipPath clipPathUnits="userSpaceOnUse" id="clipPath21">
        <path d="M576 149 L618 149 L618 176 L576 176 L576 149 Z" />
      </clipPath>
      <clipPath clipPathUnits="userSpaceOnUse" id="clipPath22">
        <path d="M670 9 L822 9 L822 61 L670 61 L670 9 Z" />
      </clipPath>
      <clipPath clipPathUnits="userSpaceOnUse" id="clipPath23">
        <path d="M670 9 L825 9 L825 61 L670 61 L670 9 Z" />
      </clipPath>
      <clipPath clipPathUnits="userSpaceOnUse" id="clipPath24">
        <path d="M740 59 L752 59 L752 1021 L740 1021 L740 59 Z" />
      </clipPath>
      <clipPath clipPathUnits="userSpaceOnUse" id="clipPath25">
        <path d="M735 509 L757 509 L757 551 L735 551 L735 509 Z" />
      </clipPath>
      <clipPath clipPathUnits="userSpaceOnUse" id="clipPath26">
        <path d="M756 509 L810 509 L810 536 L756 536 L756 509 Z" />
      </clipPath>
      <clipPath clipPathUnits="userSpaceOnUse" id="clipPath27">
        <path d="M735 629 L757 629 L757 671 L735 671 L735 629 Z" />
      </clipPath>
      <clipPath clipPathUnits="userSpaceOnUse" id="clipPath28">
        <path d="M756 629 L810 629 L810 656 L756 656 L756 629 Z" />
      </clipPath>
      <clipPath clipPathUnits="userSpaceOnUse" id="clipPath29">
        <path d="M735 689 L757 689 L757 731 L735 731 L735 689 Z" />
      </clipPath>
      <clipPath clipPathUnits="userSpaceOnUse" id="clipPath30">
        <path d="M756 689 L810 689 L810 716 L756 716 L756 689 Z" />
      </clipPath>
      <clipPath clipPathUnits="userSpaceOnUse" id="clipPath31">
        <path d="M735 389 L757 389 L757 431 L735 431 L735 389 Z" />
      </clipPath>
      <clipPath clipPathUnits="userSpaceOnUse" id="clipPath32">
        <path d="M756 389 L798 389 L798 416 L756 416 L756 389 Z" />
      </clipPath>
      <clipPath clipPathUnits="userSpaceOnUse" id="clipPath33">
        <path d="M850 9 L1002 9 L1002 61 L850 61 L850 9 Z" />
      </clipPath>
      <clipPath clipPathUnits="userSpaceOnUse" id="clipPath34">
        <path d="M850 9 L1005 9 L1005 61 L850 61 L850 9 Z" />
      </clipPath>
      <clipPath clipPathUnits="userSpaceOnUse" id="clipPath35">
        <path d="M850 9 L1003 9 L1003 61 L850 61 L850 9 Z" />
      </clipPath>
      <clipPath clipPathUnits="userSpaceOnUse" id="clipPath36">
        <path d="M850 9 L1004 9 L1004 61 L850 61 L850 9 Z" />
      </clipPath>
      <clipPath clipPathUnits="userSpaceOnUse" id="clipPath37">
        <path d="M920 59 L932 59 L932 1021 L920 1021 L920 59 Z" />
      </clipPath>
      <clipPath clipPathUnits="userSpaceOnUse" id="clipPath38">
        <path d="M915 569 L937 569 L937 611 L915 611 L915 569 Z" />
      </clipPath>
      <clipPath clipPathUnits="userSpaceOnUse" id="clipPath39">
        <path d="M936 569 L990 569 L990 596 L936 596 L936 569 Z" />
      </clipPath>
      <clipPath clipPathUnits="userSpaceOnUse" id="clipPath40">
        <path d="M915 869 L937 869 L937 911 L915 911 L915 869 Z" />
      </clipPath>
      <clipPath clipPathUnits="userSpaceOnUse" id="clipPath41">
        <path d="M936 869 L990 869 L990 896 L936 896 L936 869 Z" />
      </clipPath>
      <clipPath clipPathUnits="userSpaceOnUse" id="clipPath42">
        <path d="M915 449 L937 449 L937 491 L915 491 L915 449 Z" />
      </clipPath>
      <clipPath clipPathUnits="userSpaceOnUse" id="clipPath43">
        <path d="M936 449 L978 449 L978 476 L936 476 L936 449 Z" />
      </clipPath>
      <clipPath clipPathUnits="userSpaceOnUse" id="clipPath44">
        <path d="M1030 9 L1182 9 L1182 61 L1030 61 L1030 9 Z" />
      </clipPath>
      <clipPath clipPathUnits="userSpaceOnUse" id="clipPath45">
        <path d="M1030 9 L1185 9 L1185 61 L1030 61 L1030 9 Z" />
      </clipPath>
      <clipPath clipPathUnits="userSpaceOnUse" id="clipPath46">
        <path d="M1030 9 L1184 9 L1184 61 L1030 61 L1030 9 Z" />
      </clipPath>
      <clipPath clipPathUnits="userSpaceOnUse" id="clipPath47">
        <path d="M1100 59 L1112 59 L1112 1021 L1100 1021 L1100 59 Z" />
      </clipPath>
      <clipPath clipPathUnits="userSpaceOnUse" id="clipPath48">
        <path d="M1095 809 L1117 809 L1117 851 L1095 851 L1095 809 Z" />
      </clipPath>
      <clipPath clipPathUnits="userSpaceOnUse" id="clipPath49">
        <path d="M1116 809 L1170 809 L1170 836 L1116 836 L1116 809 Z" />
      </clipPath>
      <clipPath clipPathUnits="userSpaceOnUse" id="clipPath50">
        <path d="M1095 929 L1117 929 L1117 971 L1095 971 L1095 929 Z" />
      </clipPath>
      <clipPath clipPathUnits="userSpaceOnUse" id="clipPath51">
        <path d="M1116 929 L1170 929 L1170 956 L1116 956 L1116 929 Z" />
      </clipPath>
      <clipPath clipPathUnits="userSpaceOnUse" id="clipPath52">
        <path d="M1095 749 L1117 749 L1117 791 L1095 791 L1095 749 Z" />
      </clipPath>
      <clipPath clipPathUnits="userSpaceOnUse" id="clipPath53">
        <path d="M1116 749 L1158 749 L1158 776 L1116 776 L1116 749 Z" />
      </clipPath>
      <clipPath clipPathUnits="userSpaceOnUse" id="clipPath54">
        <path d="M-1 -1 L1192 -1 L1192 1031 L-1 1031 L-1 -1 Z" />
      </clipPath>
      <clipPath clipPathUnits="userSpaceOnUse" id="clipPath55">
        <path d="M158 67 L469 67 L469 94 L158 94 L158 67 Z" />
      </clipPath>
      <clipPath clipPathUnits="userSpaceOnUse" id="clipPath56">
        <path d="M244 85 L256 85 L256 96 L244 96 L244 85 Z" />
      </clipPath>
      <clipPath clipPathUnits="userSpaceOnUse" id="clipPath57">
        <path d="M232 187 L574 187 L574 214 L232 214 L232 187 Z" />
      </clipPath>
      <clipPath clipPathUnits="userSpaceOnUse" id="clipPath58">
        <path d="M244 205 L256 205 L256 216 L244 216 L244 205 Z" />
      </clipPath>
      <clipPath clipPathUnits="userSpaceOnUse" id="clipPath59">
        <path d="M23 307 L604 307 L604 334 L23 334 L23 307 Z" />
      </clipPath>
      <clipPath clipPathUnits="userSpaceOnUse" id="clipPath60">
        <path d="M244 325 L256 325 L256 336 L244 336 L244 325 Z" />
      </clipPath>
      <clipPath clipPathUnits="userSpaceOnUse" id="clipPath61">
        <path d="M339 487 L647 487 L647 514 L339 514 L339 487 Z" />
      </clipPath>
      <clipPath clipPathUnits="userSpaceOnUse" id="clipPath62">
        <path d="M244 505 L256 505 L256 516 L244 516 L244 505 Z" />
      </clipPath>
      <clipPath clipPathUnits="userSpaceOnUse" id="clipPath63">
        <path d="M429 547 L737 547 L737 574 L429 574 L429 547 Z" />
      </clipPath>
      <clipPath clipPathUnits="userSpaceOnUse" id="clipPath64">
        <path d="M244 565 L256 565 L256 576 L244 576 L244 565 Z" />
      </clipPath>
      <clipPath clipPathUnits="userSpaceOnUse" id="clipPath65">
        <path d="M344 607 L642 607 L642 634 L344 634 L344 607 Z" />
      </clipPath>
      <clipPath clipPathUnits="userSpaceOnUse" id="clipPath66">
        <path d="M244 625 L256 625 L256 636 L244 636 L244 625 Z" />
      </clipPath>
      <clipPath clipPathUnits="userSpaceOnUse" id="clipPath67">
        <path d="M375 667 L611 667 L611 694 L375 694 L375 667 Z" />
      </clipPath>
      <clipPath clipPathUnits="userSpaceOnUse" id="clipPath68">
        <path d="M244 685 L256 685 L256 696 L244 696 L244 685 Z" />
      </clipPath>
      <clipPath clipPathUnits="userSpaceOnUse" id="clipPath69">
        <path d="M519 787 L827 787 L827 814 L519 814 L519 787 Z" />
      </clipPath>
      <clipPath clipPathUnits="userSpaceOnUse" id="clipPath70">
        <path d="M244 805 L256 805 L256 816 L244 816 L244 805 Z" />
      </clipPath>
      <clipPath clipPathUnits="userSpaceOnUse" id="clipPath71">
        <path d="M434 847 L732 847 L732 874 L434 874 L434 847 Z" />
      </clipPath>
      <clipPath clipPathUnits="userSpaceOnUse" id="clipPath72">
        <path d="M244 865 L256 865 L256 876 L244 876 L244 865 Z" />
      </clipPath>
      <clipPath clipPathUnits="userSpaceOnUse" id="clipPath73">
        <path d="M524 907 L822 907 L822 934 L524 934 L524 907 Z" />
      </clipPath>
      <clipPath clipPathUnits="userSpaceOnUse" id="clipPath74">
        <path d="M244 925 L256 925 L256 936 L244 936 L244 925 Z" />
      </clipPath>
      <clipPath clipPathUnits="userSpaceOnUse" id="clipPath75">
        <path d="M227 127 L580 127 L580 154 L227 154 L227 127 Z" />
      </clipPath>
      <clipPath clipPathUnits="userSpaceOnUse" id="clipPath76">
        <path d="M547 145 L559 145 L559 156 L547 156 L547 145 Z" />
      </clipPath>
      <clipPath clipPathUnits="userSpaceOnUse" id="clipPath77">
        <path d="M149 247 L478 247 L478 274 L149 274 L149 247 Z" />
      </clipPath>
      <clipPath clipPathUnits="userSpaceOnUse" id="clipPath78">
        <path d="M367 265 L379 265 L379 276 L367 276 L367 265 Z" />
      </clipPath>
      <clipPath clipPathUnits="userSpaceOnUse" id="clipPath79">
        <path d="M49 367 L938 367 L938 394 L49 394 L49 367 Z" />
      </clipPath>
      <clipPath clipPathUnits="userSpaceOnUse" id="clipPath80">
        <path d="M727 385 L739 385 L739 396 L727 396 L727 385 Z" />
      </clipPath>
      <clipPath clipPathUnits="userSpaceOnUse" id="clipPath81">
        <path d="M139 427 L1028 427 L1028 454 L139 454 L139 427 Z" />
      </clipPath>
      <clipPath clipPathUnits="userSpaceOnUse" id="clipPath82">
        <path d="M907 445 L919 445 L919 456 L907 456 L907 445 Z" />
      </clipPath>
      <clipPath clipPathUnits="userSpaceOnUse" id="clipPath83">
        <path d="M229 727 L1118 727 L1118 754 L229 754 L229 727 Z" />
      </clipPath>
      <clipPath clipPathUnits="userSpaceOnUse" id="clipPath84">
        <path d="M1087 745 L1099 745 L1099 756 L1087 756 L1087 745 Z" />
      </clipPath>
    </defs>
    <g fill="rgb(238,201,142)" font-family="'Segoe UI'" stroke-linejoin="round" stroke="rgb(238,201,142)" stroke-width="0" stroke-miterlimit="0">
      <rect x="211" y="10" clip-path="url(#clipPath1)" width="70" height="30" stroke="none" />
    </g>
    <g stroke-width="0.1" font-family="'Segoe UI'" stroke-linecap="butt">
      <rect x="211" y="10" clip-path="url(#clipPath1)" fill="none" width="69" height="29" />
      <text x="217" font-size="19" y="33" clip-path="url(#clipPath2)" stroke="none" xml:space="preserve">System</text>
      <line clip-path="url(#clipPath3)" fill="none" x1="245" x2="245" y1="40" y2="1020" stroke-dasharray="10,10" stroke-width="1.1" />
    </g>
    <g stroke-linecap="butt" fill="rgb(255,245,181)" font-family="'Segoe UI'" stroke-dasharray="10,10" stroke="rgb(255,245,181)" stroke-width="1.1">
      <rect x="311" y="10" clip-path="url(#clipPath4)" width="150" height="50" stroke="none" />
    </g>
    <g stroke-width="0.1" font-family="'Segoe UI'" stroke-linecap="butt">
      <rect x="311" y="10" clip-path="url(#clipPath4)" fill="none" width="149" height="49" />
      <text x="365" font-size="13" y="24" clip-path="url(#clipPath5)" stroke="none" xml:space="preserve">Camille</text>
      <text x="382" font-size="13" y="41" clip-path="url(#clipPath6)" stroke="none" xml:space="preserve">: </text>
      <text x="312" font-size="13" y="58" clip-path="url(#clipPath5)" stroke="none" xml:space="preserve">actEmergencyCoordinat...</text>
      <line clip-path="url(#clipPath7)" fill="none" x1="385" x2="385" y1="60" y2="1020" stroke-dasharray="10,10" stroke-width="1.1" />
    </g>
    <g stroke-linecap="butt" fill="rgb(39,76,114)" font-family="'Segoe UI'" stroke-dasharray="10,10" stroke="rgb(39,76,114)" stroke-width="1.1">
      <rect x="376" y="90" clip-path="url(#clipPath8)" width="20" height="40" stroke="none" />
      <rect x="376" y="90" clip-path="url(#clipPath8)" fill="none" width="19" stroke-dasharray="none" height="39" stroke-width="0.1" />
    </g>
    <g stroke-width="0.1" font-size="19" font-family="'Segoe UI'" stroke-linecap="butt">
      <text xml:space="preserve" x="397" y="111" clip-path="url(#clipPath9)" stroke="none">out01</text>
      <rect x="376" y="330" clip-path="url(#clipPath10)" fill="rgb(39,76,114)" width="20" height="40" stroke="none" />
      <rect x="376" y="330" clip-path="url(#clipPath10)" fill="none" width="19" height="39" stroke="rgb(39,76,114)" />
      <text xml:space="preserve" x="397" y="351" clip-path="url(#clipPath11)" stroke="none">out03</text>
      <rect x="376" y="270" clip-path="url(#clipPath12)" fill="rgb(194,239,255)" width="20" height="40" stroke="none" />
      <rect x="376" y="270" clip-path="url(#clipPath12)" fill="none" width="19" height="39" stroke="rgb(194,239,255)" />
      <text xml:space="preserve" x="397" y="291" clip-path="url(#clipPath13)" stroke="none">in02</text>
      <rect x="491" y="10" clip-path="url(#clipPath14)" fill="rgb(255,245,181)" width="150" height="50" stroke="none" />
      <rect x="491" y="10" clip-path="url(#clipPath14)" fill="none" width="149" height="49" />
      <text x="543" font-size="13" y="24" clip-path="url(#clipPath15)" stroke="none" xml:space="preserve">Orange</text>
      <text x="562" font-size="13" y="41" clip-path="url(#clipPath16)" stroke="none" xml:space="preserve">: </text>
      <text x="494" font-size="13" y="58" clip-path="url(#clipPath15)" stroke="none" xml:space="preserve">actCommunicationCom...</text>
      <line clip-path="url(#clipPath17)" fill="none" x1="565" x2="565" y1="60" y2="1020" stroke-dasharray="10,10" stroke-width="1.1" />
    </g>
    <g stroke-linecap="butt" fill="rgb(39,76,114)" font-family="'Segoe UI'" stroke-dasharray="10,10" stroke="rgb(39,76,114)" stroke-width="1.1">
      <rect x="556" y="210" clip-path="url(#clipPath18)" width="20" height="40" stroke="none" />
      <rect x="556" y="210" clip-path="url(#clipPath18)" fill="none" width="19" stroke-dasharray="none" height="39" stroke-width="0.1" />
    </g>
    <g stroke-width="0.1" font-size="19" font-family="'Segoe UI'" stroke-linecap="butt">
      <text xml:space="preserve" x="577" y="231" clip-path="url(#clipPath19)" stroke="none">out02</text>
      <rect x="556" y="150" clip-path="url(#clipPath20)" fill="rgb(194,239,255)" width="20" height="40" stroke="none" />
      <rect x="556" y="150" clip-path="url(#clipPath20)" fill="none" width="19" height="39" stroke="rgb(194,239,255)" />
      <text xml:space="preserve" x="577" y="171" clip-path="url(#clipPath21)" stroke="none">in01</text>
      <rect x="671" y="10" clip-path="url(#clipPath22)" fill="rgb(255,245,181)" width="150" height="50" stroke="none" />
      <rect x="671" y="10" clip-path="url(#clipPath22)" fill="none" width="149" height="49" />
      <text x="729" font-size="13" y="32" clip-path="url(#clipPath23)" stroke="none" xml:space="preserve">Fabio</text>
      <text x="675" font-size="13" y="49" clip-path="url(#clipPath23)" stroke="none" xml:space="preserve">: actFiremenCoordinator</text>
      <line clip-path="url(#clipPath24)" fill="none" x1="745" x2="745" y1="60" y2="1020" stroke-dasharray="10,10" stroke-width="1.1" />
    </g>
    <g stroke-linecap="butt" fill="rgb(39,76,114)" font-family="'Segoe UI'" stroke-dasharray="10,10" stroke="rgb(39,76,114)" stroke-width="1.1">
      <rect x="736" y="510" clip-path="url(#clipPath25)" width="20" height="40" stroke="none" />
      <rect x="736" y="510" clip-path="url(#clipPath25)" fill="none" width="19" stroke-dasharray="none" height="39" stroke-width="0.1" />
    </g>
    <g stroke-width="0.1" font-size="19" font-family="'Segoe UI'" stroke-linecap="butt">
      <text xml:space="preserve" x="757" y="531" clip-path="url(#clipPath26)" stroke="none">out04</text>
      <rect x="736" y="630" clip-path="url(#clipPath27)" fill="rgb(39,76,114)" width="20" height="40" stroke="none" />
      <rect x="736" y="630" clip-path="url(#clipPath27)" fill="none" width="19" height="39" stroke="rgb(39,76,114)" />
      <text xml:space="preserve" x="757" y="651" clip-path="url(#clipPath28)" stroke="none">out06</text>
      <rect x="736" y="690" clip-path="url(#clipPath29)" fill="rgb(39,76,114)" width="20" height="40" stroke="none" />
      <rect x="736" y="690" clip-path="url(#clipPath29)" fill="none" width="19" height="39" stroke="rgb(39,76,114)" />
      <text xml:space="preserve" x="757" y="711" clip-path="url(#clipPath30)" stroke="none">out07</text>
      <rect x="736" y="390" clip-path="url(#clipPath31)" fill="rgb(194,239,255)" width="20" height="40" stroke="none" />
      <rect x="736" y="390" clip-path="url(#clipPath31)" fill="none" width="19" height="39" stroke="rgb(194,239,255)" />
      <text xml:space="preserve" x="757" y="411" clip-path="url(#clipPath32)" stroke="none">in03</text>
      <rect x="851" y="10" clip-path="url(#clipPath33)" fill="rgb(255,245,181)" width="150" height="50" stroke="none" />
      <rect x="851" y="10" clip-path="url(#clipPath33)" fill="none" width="149" height="49" />
      <text x="915" font-size="13" y="24" clip-path="url(#clipPath34)" stroke="none" xml:space="preserve">Ted</text>
      <text x="922" font-size="13" y="41" clip-path="url(#clipPath35)" stroke="none" xml:space="preserve">: </text>
      <text x="852" font-size="13" y="58" clip-path="url(#clipPath36)" stroke="none" xml:space="preserve">actTowServiceCoordinat...</text>
      <line clip-path="url(#clipPath37)" fill="none" x1="925" x2="925" y1="60" y2="1020" stroke-dasharray="10,10" stroke-width="1.1" />
    </g>
    <g stroke-linecap="butt" fill="rgb(39,76,114)" font-family="'Segoe UI'" stroke-dasharray="10,10" stroke="rgb(39,76,114)" stroke-width="1.1">
      <rect x="916" y="570" clip-path="url(#clipPath38)" width="20" height="40" stroke="none" />
      <rect x="916" y="570" clip-path="url(#clipPath38)" fill="none" width="19" stroke-dasharray="none" height="39" stroke-width="0.1" />
    </g>
    <g stroke-width="0.1" font-size="19" font-family="'Segoe UI'" stroke-linecap="butt">
      <text xml:space="preserve" x="937" y="591" clip-path="url(#clipPath39)" stroke="none">out05</text>
      <rect x="916" y="870" clip-path="url(#clipPath40)" fill="rgb(39,76,114)" width="20" height="40" stroke="none" />
      <rect x="916" y="870" clip-path="url(#clipPath40)" fill="none" width="19" height="39" stroke="rgb(39,76,114)" />
      <text xml:space="preserve" x="937" y="891" clip-path="url(#clipPath41)" stroke="none">out09</text>
      <rect x="916" y="450" clip-path="url(#clipPath42)" fill="rgb(194,239,255)" width="20" height="40" stroke="none" />
      <rect x="916" y="450" clip-path="url(#clipPath42)" fill="none" width="19" height="39" stroke="rgb(194,239,255)" />
      <text xml:space="preserve" x="937" y="471" clip-path="url(#clipPath43)" stroke="none">in04</text>
      <rect x="1031" y="10" clip-path="url(#clipPath44)" fill="rgb(255,245,181)" width="150" height="50" stroke="none" />
      <rect x="1031" y="10" clip-path="url(#clipPath44)" fill="none" width="149" height="49" />
      <text x="1092" font-size="13" y="32" clip-path="url(#clipPath45)" stroke="none" xml:space="preserve">Polo</text>
      <text x="1041" font-size="13" y="49" clip-path="url(#clipPath46)" stroke="none" xml:space="preserve">: actPoliceCoordinator</text>
      <line clip-path="url(#clipPath47)" fill="none" x1="1105" x2="1105" y1="60" y2="1020" stroke-dasharray="10,10" stroke-width="1.1" />
    </g>
    <g stroke-linecap="butt" fill="rgb(39,76,114)" font-family="'Segoe UI'" stroke-dasharray="10,10" stroke="rgb(39,76,114)" stroke-width="1.1">
      <rect x="1096" y="810" clip-path="url(#clipPath48)" width="20" height="40" stroke="none" />
      <rect x="1096" y="810" clip-path="url(#clipPath48)" fill="none" width="19" stroke-dasharray="none" height="39" stroke-width="0.1" />
    </g>
    <g stroke-width="0.1" font-size="19" font-family="'Segoe UI'" stroke-linecap="butt">
      <text xml:space="preserve" x="1117" y="831" clip-path="url(#clipPath49)" stroke="none">out08</text>
      <rect x="1096" y="930" clip-path="url(#clipPath50)" fill="rgb(39,76,114)" width="20" height="40" stroke="none" />
      <rect x="1096" y="930" clip-path="url(#clipPath50)" fill="none" width="19" height="39" stroke="rgb(39,76,114)" />
      <text xml:space="preserve" x="1117" y="951" clip-path="url(#clipPath51)" stroke="none">out10</text>
      <rect x="1096" y="750" clip-path="url(#clipPath52)" fill="rgb(194,239,255)" width="20" height="40" stroke="none" />
      <rect x="1096" y="750" clip-path="url(#clipPath52)" fill="none" width="19" height="39" stroke="rgb(194,239,255)" />
      <text xml:space="preserve" x="1117" y="771" clip-path="url(#clipPath53)" stroke="none">in05</text>
      <line clip-path="url(#clipPath54)" fill="none" x1="376" x2="246" y1="90" y2="90" stroke="rgb(136,136,136)" stroke-width="2.1" />
      <text x="159" y="89" clip-path="url(#clipPath55)" stroke="none" stroke-width="2.1" xml:space="preserve">oeRequestCoordinates("691123456")</text>
      <line clip-path="url(#clipPath56)" fill="none" x1="253" x2="246" y1="87" y2="90" stroke="rgb(136,136,136)" stroke-width="2.1" />
      <line clip-path="url(#clipPath56)" fill="none" x1="246" x2="253" y1="90" y2="93" stroke="rgb(136,136,136)" stroke-width="2.1" />
      <line clip-path="url(#clipPath54)" fill="none" x1="556" x2="246" y1="210" y2="210" stroke="rgb(136,136,136)" stroke-width="2.1" />
      <text x="233" y="209" clip-path="url(#clipPath57)" stroke="none" stroke-width="2.1" xml:space="preserve">oeSendCoordinates("X=75.08, Y=23.03")</text>
      <line clip-path="url(#clipPath58)" fill="none" x1="253" x2="246" y1="207" y2="210" stroke="rgb(136,136,136)" stroke-width="2.1" />
      <line clip-path="url(#clipPath58)" fill="none" x1="246" x2="253" y1="210" y2="213" stroke="rgb(136,136,136)" stroke-width="2.1" />
      <line clip-path="url(#clipPath54)" fill="none" x1="376" x2="246" y1="330" y2="330" stroke="rgb(136,136,136)" stroke-width="2.1" />
      <text x="24" y="329" clip-path="url(#clipPath59)" stroke="none" stroke-width="2.1" xml:space="preserve">oeCreateNewCrisisEvent("","","","691123456","A4, 1321 Luxembourg")</text>
      <line clip-path="url(#clipPath60)" fill="none" x1="253" x2="246" y1="327" y2="330" stroke="rgb(136,136,136)" stroke-width="2.1" />
      <line clip-path="url(#clipPath60)" fill="none" x1="246" x2="253" y1="330" y2="333" stroke="rgb(136,136,136)" stroke-width="2.1" />
      <line clip-path="url(#clipPath54)" fill="none" x1="736" x2="246" y1="510" y2="510" stroke="rgb(136,136,136)" stroke-width="2.1" />
      <text x="340" y="509" clip-path="url(#clipPath61)" stroke="none" stroke-width="2.1" xml:space="preserve">oeUpdateDispatchStatus("InTransit")</text>
      <line clip-path="url(#clipPath62)" fill="none" x1="253" x2="246" y1="507" y2="510" stroke="rgb(136,136,136)" stroke-width="2.1" />
      <line clip-path="url(#clipPath62)" fill="none" x1="246" x2="253" y1="510" y2="513" stroke="rgb(136,136,136)" stroke-width="2.1" />
      <line clip-path="url(#clipPath54)" fill="none" x1="916" x2="246" y1="570" y2="570" stroke="rgb(136,136,136)" stroke-width="2.1" />
      <text x="430" y="569" clip-path="url(#clipPath63)" stroke="none" stroke-width="2.1" xml:space="preserve">oeUpdateDispatchStatus("InTransit")</text>
      <line clip-path="url(#clipPath64)" fill="none" x1="253" x2="246" y1="567" y2="570" stroke="rgb(136,136,136)" stroke-width="2.1" />
      <line clip-path="url(#clipPath64)" fill="none" x1="246" x2="253" y1="570" y2="573" stroke="rgb(136,136,136)" stroke-width="2.1" />
      <line clip-path="url(#clipPath54)" fill="none" x1="736" x2="246" y1="630" y2="630" stroke="rgb(136,136,136)" stroke-width="2.1" />
      <text x="345" y="629" clip-path="url(#clipPath65)" stroke="none" stroke-width="2.1" xml:space="preserve">oeUpdateDispatchStatus("Arrived")</text>
      <line clip-path="url(#clipPath66)" fill="none" x1="253" x2="246" y1="627" y2="630" stroke="rgb(136,136,136)" stroke-width="2.1" />
      <line clip-path="url(#clipPath66)" fill="none" x1="246" x2="253" y1="630" y2="633" stroke="rgb(136,136,136)" stroke-width="2.1" />
      <line clip-path="url(#clipPath54)" fill="none" x1="736" x2="246" y1="690" y2="690" stroke="rgb(136,136,136)" stroke-width="2.1" />
      <text x="376" y="689" clip-path="url(#clipPath67)" stroke="none" stroke-width="2.1" xml:space="preserve">oeRequestHelp("Police","1")</text>
      <line clip-path="url(#clipPath68)" fill="none" x1="253" x2="246" y1="687" y2="690" stroke="rgb(136,136,136)" stroke-width="2.1" />
      <line clip-path="url(#clipPath68)" fill="none" x1="246" x2="253" y1="690" y2="693" stroke="rgb(136,136,136)" stroke-width="2.1" />
      <line clip-path="url(#clipPath54)" fill="none" x1="1096" x2="246" y1="810" y2="810" stroke="rgb(136,136,136)" stroke-width="2.1" />
      <text x="520" y="809" clip-path="url(#clipPath69)" stroke="none" stroke-width="2.1" xml:space="preserve">oeUpdateDispatchStatus("InTransit")</text>
      <line clip-path="url(#clipPath70)" fill="none" x1="253" x2="246" y1="807" y2="810" stroke="rgb(136,136,136)" stroke-width="2.1" />
      <line clip-path="url(#clipPath70)" fill="none" x1="246" x2="253" y1="810" y2="813" stroke="rgb(136,136,136)" stroke-width="2.1" />
      <line clip-path="url(#clipPath54)" fill="none" x1="916" x2="246" y1="870" y2="870" stroke="rgb(136,136,136)" stroke-width="2.1" />
      <text x="435" y="869" clip-path="url(#clipPath71)" stroke="none" stroke-width="2.1" xml:space="preserve">oeUpdateDispatchStatus("Arrived")</text>
      <line clip-path="url(#clipPath72)" fill="none" x1="253" x2="246" y1="867" y2="870" stroke="rgb(136,136,136)" stroke-width="2.1" />
      <line clip-path="url(#clipPath72)" fill="none" x1="246" x2="253" y1="870" y2="873" stroke="rgb(136,136,136)" stroke-width="2.1" />
      <line clip-path="url(#clipPath54)" fill="none" x1="1096" x2="246" y1="930" y2="930" stroke="rgb(136,136,136)" stroke-width="2.1" />
      <text x="525" y="929" clip-path="url(#clipPath73)" stroke="none" stroke-width="2.1" xml:space="preserve">oeUpdateDispatchStatus("Arrived")</text>
      <line clip-path="url(#clipPath74)" fill="none" x1="253" x2="246" y1="927" y2="930" stroke="rgb(136,136,136)" stroke-width="2.1" />
      <line clip-path="url(#clipPath74)" fill="none" x1="246" x2="253" y1="930" y2="933" stroke="rgb(136,136,136)" stroke-width="2.1" />
    </g>
    <g stroke-linecap="butt" font-size="19" fill="rgb(136,136,136)" font-family="'Segoe UI'" stroke-dasharray="5,5" stroke="rgb(136,136,136)" stroke-width="2.1">
      <line clip-path="url(#clipPath54)" fill="none" x1="556" x2="246" y1="150" y2="150" />
      <text x="228" y="149" clip-path="url(#clipPath75)" fill="black" stroke="none" xml:space="preserve">ieRequestCoordinates(AdtPhoneNumber)</text>
      <line clip-path="url(#clipPath76)" fill="none" x1="549" x2="556" y1="153" y2="150" stroke-dasharray="none" />
      <line clip-path="url(#clipPath76)" fill="none" x1="556" x2="549" y1="150" y2="147" stroke-dasharray="none" />
      <line clip-path="url(#clipPath54)" fill="none" x1="376" x2="246" y1="270" y2="270" />
      <text x="150" y="269" clip-path="url(#clipPath77)" fill="black" stroke="none" xml:space="preserve">ieReceiveCoordinates(AdtCoordinates)</text>
      <line clip-path="url(#clipPath78)" fill="none" x1="369" x2="376" y1="273" y2="270" stroke-dasharray="none" />
      <line clip-path="url(#clipPath78)" fill="none" x1="376" x2="369" y1="270" y2="267" stroke-dasharray="none" />
      <line clip-path="url(#clipPath54)" fill="none" x1="736" x2="246" y1="390" y2="390" />
      <text x="50" y="389" clip-path="url(#clipPath79)" fill="black" stroke="none" xml:space="preserve">ieReceiveNewCrisisEvent(AdtCrisisID,AdtName,AenHumanType,AdtPhoneNumber,AdtCrisisEventLocation)</text>
      <line clip-path="url(#clipPath80)" fill="none" x1="729" x2="736" y1="393" y2="390" stroke-dasharray="none" />
      <line clip-path="url(#clipPath80)" fill="none" x1="736" x2="729" y1="390" y2="387" stroke-dasharray="none" />
      <line clip-path="url(#clipPath54)" fill="none" x1="916" x2="246" y1="450" y2="450" />
      <text x="140" y="449" clip-path="url(#clipPath81)" fill="black" stroke="none" xml:space="preserve">ieReceiveNewCrisisEvent(AdtCrisisID,AdtName,AenHumanType,AdtPhoneNumber,AdtCrisisEventLocation)</text>
      <line clip-path="url(#clipPath82)" fill="none" x1="909" x2="916" y1="453" y2="450" stroke-dasharray="none" />
      <line clip-path="url(#clipPath82)" fill="none" x1="916" x2="909" y1="450" y2="447" stroke-dasharray="none" />
      <line clip-path="url(#clipPath54)" fill="none" x1="1096" x2="246" y1="750" y2="750" />
      <text x="230" y="749" clip-path="url(#clipPath83)" fill="black" stroke="none" xml:space="preserve">ieReceiveNewCrisisEvent(AdtCrisisID,AdtName,AenHumanType,AdtPhoneNumber,AdtCrisisEventLocation)</text>
      <line clip-path="url(#clipPath84)" fill="none" x1="1089" x2="1096" y1="753" y2="750" stroke-dasharray="none" />
      <line clip-path="url(#clipPath84)" fill="none" x1="1096" x2="1089" y1="750" y2="747" stroke-dasharray="none" />
    </g>
  </g>
</svg>

